<svg viewBox="298 226.5323 380 101.9354" width="5000" height="1341.2552631578947" xmlns="http://www.w3.org/2000/svg" xmlns:xlink="http://www.w3.org/1999/xlink" preserveAspectRatio="none"><defs></defs><style>.atBXipXk0bfillColor {fill:#FBFBFB;fill-opacity:0;}.companyName {fill:#FBFBFB;fill-opacity:1;}.icon3-str {stroke:#277B27;stroke-opacity:1;}.shapeStroke-str {stroke:#FBFBFB;stroke-opacity:1;}</style><g opacity="1" transform="rotate(0 298 226.5323)">
<svg width="380" height="101.9354" x="298" y="226.5323" version="1.1" preserveAspectRatio="none" viewBox="0 0 380 101.9354">
  <rect x="3" y="3" width="374" height="95.9354" class="atBXipXk0bfillColor shapeStroke-str" style="stroke-width:6;" rx="14px" ry="14px" />
</svg>
</g><g opacity="1" transform="rotate(0 316.5337 245.066)">
<svg width="342.9326" height="64.868" x="316.5337" y="245.066" version="1.1" preserveAspectRatio="none" viewBox="3.6 -31.24 166 31.4">
  <g transform="matrix(1 0 0 1 0 0)" class="companyName"><path id="id-D6z1nYkh6" d="M5.64-31.24Q4.72-31.24 4.16-30.68Q3.60-30.12 3.60-29.20L3.60-29.20L3.60-10.96Q3.60-7.84 5.06-5.30Q6.52-2.76 9.02-1.30Q11.52 0.16 14.60 0.16L14.60 0.16Q17.68 0.16 20.22-1.30Q22.76-2.76 24.20-5.30Q25.64-7.84 25.64-10.96L25.64-10.96Q25.64-14.08 24.30-16.62Q22.96-19.16 20.62-20.60Q18.28-22.04 15.40-22.04L15.40-22.04Q13.08-22.04 11.08-21.08Q9.08-20.12 7.68-18.40L7.68-18.40L7.68-29.20Q7.68-30.12 7.10-30.68Q6.52-31.24 5.64-31.24L5.64-31.24ZM14.60-3.44Q12.60-3.44 10.98-4.42Q9.36-5.40 8.44-7.12Q7.52-8.84 7.52-10.96L7.52-10.96Q7.52-13.08 8.44-14.78Q9.36-16.48 10.98-17.46Q12.60-18.44 14.60-18.44L14.60-18.44Q16.60-18.44 18.22-17.46Q19.84-16.48 20.78-14.78Q21.72-13.08 21.72-10.96L21.72-10.96Q21.72-8.84 20.78-7.12Q19.84-5.40 18.22-4.42Q16.60-3.44 14.60-3.44L14.60-3.44Z M42.60-22.08Q45.36-22.08 47.56-20.88Q49.76-19.68 51-17.38Q52.24-15.08 52.24-11.84L52.24-11.84L52.24-2Q52.24-1.12 51.66-0.54Q51.08 0.04 50.20 0.04L50.20 0.04Q49.32 0.04 48.74-0.54Q48.16-1.12 48.16-2L48.16-2L48.16-11.84Q48.16-15.08 46.42-16.74Q44.68-18.40 41.80-18.40L41.80-18.40Q40.12-18.40 38.74-17.72Q37.36-17.04 36.58-15.88Q35.80-14.72 35.80-13.28L35.80-13.28L35.80-2Q35.80-1.12 35.24-0.54Q34.68 0.04 33.76 0.04L33.76 0.04Q32.88 0.04 32.30-0.54Q31.72-1.12 31.72-2L31.72-2L31.72-19.84Q31.72-20.76 32.30-21.32Q32.88-21.88 33.76-21.88L33.76-21.88Q34.68-21.88 35.24-21.32Q35.80-20.76 35.80-19.84L35.80-19.84L35.80-19.40Q37.08-20.68 38.84-21.38Q40.60-22.08 42.60-22.08L42.60-22.08Z M61.04-31.24Q60.12-31.24 59.56-30.68Q59.00-30.12 59.00-29.20L59.00-29.20L59.00-10.96Q59.00-7.84 60.46-5.30Q61.92-2.76 64.42-1.30Q66.92 0.16 70 0.16L70 0.16Q73.08 0.16 75.62-1.30Q78.16-2.76 79.60-5.30Q81.04-7.84 81.04-10.96L81.04-10.96Q81.04-14.08 79.70-16.62Q78.36-19.16 76.02-20.60Q73.68-22.04 70.80-22.04L70.80-22.04Q68.48-22.04 66.48-21.08Q64.48-20.12 63.08-18.40L63.08-18.40L63.08-29.20Q63.08-30.12 62.50-30.68Q61.92-31.24 61.04-31.24L61.04-31.24ZM70-3.44Q68-3.44 66.38-4.42Q64.76-5.40 63.84-7.12Q62.92-8.84 62.92-10.96L62.92-10.96Q62.92-13.08 63.84-14.78Q64.76-16.48 66.38-17.46Q68-18.44 70-18.44L70-18.44Q72-18.44 73.62-17.46Q75.24-16.48 76.18-14.78Q77.12-13.08 77.12-10.96L77.12-10.96Q77.12-8.84 76.18-7.12Q75.24-5.40 73.62-4.42Q72-3.44 70-3.44L70-3.44Z M110.12-22.08Q113.60-22.08 115.74-19.80Q117.88-17.52 117.88-13.44L117.88-13.44L117.88-2Q117.88-1.12 117.32-0.54Q116.76 0.04 115.84 0.04L115.84 0.04Q114.96 0.04 114.38-0.54Q113.80-1.12 113.80-2L113.80-2L113.80-13.44Q113.80-15.88 112.58-17.14Q111.36-18.40 109.32-18.40L109.32-18.40Q107.24-18.40 105.90-16.96Q104.56-15.52 104.56-13.28L104.56-13.28L104.56-2Q104.56-1.12 104.00-0.54Q103.44 0.04 102.52 0.04L102.52 0.04Q101.64 0.04 101.06-0.54Q100.48-1.12 100.48-2L100.48-2L100.48-13.44Q100.48-15.88 99.26-17.14Q98.04-18.40 96.00-18.40L96.00-18.40Q93.88-18.40 92.54-16.96Q91.20-15.52 91.20-13.28L91.20-13.28L91.20-2Q91.20-1.12 90.64-0.54Q90.08 0.04 89.16 0.04L89.16 0.04Q88.28 0.04 87.70-0.54Q87.12-1.12 87.12-2L87.12-2L87.12-19.80Q87.12-20.72 87.70-21.28Q88.28-21.84 89.16-21.84L89.16-21.84Q90.04-21.84 90.60-21.30Q91.16-20.76 91.20-19.88L91.20-19.88Q92.24-20.92 93.68-21.50Q95.12-22.08 96.80-22.08L96.80-22.08Q98.84-22.08 100.46-21.26Q102.08-20.44 103.12-18.92L103.12-18.92Q104.32-20.40 106.12-21.24Q107.92-22.08 110.12-22.08L110.12-22.08Z M144.28-11.28Q144.28-10.52 143.76-10.02Q143.24-9.52 142.44-9.52L142.44-9.52L127.24-9.52Q127.68-6.72 129.78-5Q131.88-3.28 134.92-3.28L134.92-3.28Q136.12-3.28 137.42-3.72Q138.72-4.16 139.56-4.80L139.56-4.80Q140.12-5.24 140.88-5.24L140.88-5.24Q141.64-5.24 142.08-4.84L142.08-4.84Q142.80-4.24 142.80-3.48L142.80-3.48Q142.80-2.76 142.16-2.28L142.16-2.28Q140.80-1.20 138.78-0.52Q136.76 0.16 134.92 0.16L134.92 0.16Q131.64 0.16 129.04-1.26Q126.44-2.68 124.98-5.20Q123.52-7.72 123.52-10.92L123.52-10.92Q123.52-14.12 124.90-16.66Q126.28-19.20 128.74-20.62Q131.20-22.04 134.32-22.04L134.32-22.04Q137.40-22.04 139.64-20.68Q141.88-19.32 143.08-16.88Q144.28-14.44 144.28-11.28L144.28-11.28ZM134.32-18.60Q131.40-18.60 129.58-17Q127.76-15.40 127.28-12.72L127.28-12.72L140.60-12.72Q140.24-15.40 138.60-17Q136.96-18.60 134.32-18.60L134.32-18.60Z M167.56-31.24Q168.48-31.24 169.04-30.68Q169.60-30.12 169.60-29.20L169.60-29.20L169.60-10.96Q169.60-7.84 168.14-5.30Q166.68-2.76 164.18-1.30Q161.68 0.16 158.60 0.16L158.60 0.16Q155.52 0.16 152.98-1.30Q150.44-2.76 149-5.30Q147.56-7.84 147.56-10.96L147.56-10.96Q147.56-14.08 148.90-16.62Q150.24-19.16 152.58-20.60Q154.92-22.04 157.80-22.04L157.80-22.04Q160.12-22.04 162.12-21.08Q164.12-20.12 165.52-18.40L165.52-18.40L165.52-29.20Q165.52-30.12 166.10-30.68Q166.68-31.24 167.56-31.24L167.56-31.24ZM158.60-3.44Q160.60-3.44 162.22-4.42Q163.84-5.40 164.76-7.12Q165.68-8.84 165.68-10.96L165.68-10.96Q165.68-13.08 164.76-14.78Q163.84-16.48 162.22-17.46Q160.60-18.44 158.60-18.44L158.60-18.44Q156.60-18.44 154.98-17.46Q153.36-16.48 152.42-14.78Q151.48-13.08 151.48-10.96L151.48-10.96Q151.48-8.84 152.42-7.12Q153.36-5.40 154.98-4.42Q156.60-3.44 158.60-3.44L158.60-3.44Z"/></g>
</svg>
</g></svg>