<?xml version="1.0" encoding="utf-8"?>
<!-- Generator: Adobe Illustrator 19.2.0, SVG Export Plug-In . SVG Version: 6.00 Build 0)  -->
<svg version="1.1" id="Layer_1" xmlns="http://www.w3.org/2000/svg" xmlns:xlink="http://www.w3.org/1999/xlink" x="0px" y="0px"
	 viewBox="0 0 2628.6 2221.4" style="enable-background:new 0 0 2628.6 2221.4;" xml:space="preserve">
<style type="text/css">
	.st0{fill:#FFFFFF;}
</style>
<g>
	<g>
		<path class="st0" d="M1824.5,1835h-60c-51.8,0-94-42.2-94-94v-90h68.1v90c0,14.3,11.7,26,26,26h60c14.3,0,26-11.7,26-26v-90h68.1
			v90C1918.5,1792.8,1876.3,1835,1824.5,1835z"/>
	</g>
	<g>
		<path class="st0" d="M864.1,1835h-60c-51.8,0-94-42.2-94-94v-90h68.1v90c0,14.3,11.7,26,26,26h60c14.3,0,26-11.7,26-26v-90h68.1
			v90C958.2,1792.8,916,1835,864.1,1835z"/>
	</g>
	<g>
		<path class="st0" d="M834.1,1564.9c-51.8,0-94-42.2-94-94s42.2-94,94-94s94,42.2,94,94C928.2,1522.7,886,1564.9,834.1,1564.9z
			 M834.1,1444.9c-14.3,0-26,11.7-26,26s11.7,26,26,26s26-11.7,26-26S848.4,1444.9,834.1,1444.9z"/>
	</g>
	<g>
		<path class="st0" d="M1794.5,1564.9c-51.8,0-94-42.2-94-94s42.2-94,94-94s94,42.2,94,94
			C1888.5,1522.7,1846.3,1564.9,1794.5,1564.9z M1794.5,1444.9c-14.3,0-26,11.7-26,26s11.7,26,26,26s26-11.7,26-26
			S1808.8,1444.9,1794.5,1444.9z"/>
	</g>
	<g>
		<path class="st0" d="M1884.5,1684.9H744.1c-51.8,0-94-42.2-94-94V600.5c0-118.1,96-214.1,214.1-214.1h900.3
			c118.1,0,214.1,96,214.1,214.1v990.4C1978.5,1642.7,1936.3,1684.9,1884.5,1684.9z M864.1,454.5c-80.5,0-146,65.5-146,146v990.4
			c0,14.3,11.7,26,26,26h1140.4c14.3,0,26-11.7,26-26V600.5c0-80.5-65.5-146-146-146H864.1z"/>
	</g>
	<g>
		<path class="st0" d="M684,1054.7h-60c-51.8,0-94-42.2-94-94V780.6c0-51.8,42.2-94,94-94h60v68.1h-60c-14.3,0-26,11.7-26,26v180.1
			c0,14.3,11.7,26,26,26h60V1054.7z"/>
	</g>
	<g>
		<path class="st0" d="M2004.5,1054.7h-60v-68.1h60c14.3,0,26-11.7,26-26v-180c0-14.3-11.7-26-26-26h-60v-68.1h60
			c51.8,0,94,42.2,94,94v180.1C2098.6,1012.5,2056.4,1054.7,2004.5,1054.7z"/>
	</g>
</g>
</svg>
