<?xml version="1.0" encoding="utf-8"?>
<!-- Generator: Adobe Illustrator 17.0.0, SVG Export Plug-In . SVG Version: 6.00 Build 0)  -->
<!DOCTYPE svg PUBLIC "-//W3C//DTD SVG 1.1//EN" "http://www.w3.org/Graphics/SVG/1.1/DTD/svg11.dtd">
<svg version="1.1" id="Camada_1" xmlns="http://www.w3.org/2000/svg" xmlns:xlink="http://www.w3.org/1999/xlink" x="0px" y="0px"
	 width="48.002px" height="48px" viewBox="0 0 48.002 48" enable-background="new 0 0 48.002 48" xml:space="preserve">
<g>
	<path fill="#FFFFFF" d="M1.002,47.996L1.002,47.996c-0.553,0-1-0.448-1-1l0.006-12.537c0.001-1.88,0.588-3.741,1.66-5.282V26.82
		c0-0.774-0.227-1.524-0.657-2.169c-0.667-1-1.01-2.134-1.01-3.305c-0.05-2.47,1.675-4.682,4.102-5.239
		c0.36-0.074,0.707-0.109,1.056-0.11c0,0,0.001,0,0.002,0c1.383,0,2.68,0.537,3.657,1.513c0.977,0.976,1.516,2.274,1.516,3.655
		v3.799c0,1.15-0.732,2.167-1.823,2.53l-0.677,0.226v1.409c2.803,3.392,4.167,6.39,4.167,9.156V40c0,0.553-0.448,1-1,1s-1-0.447-1-1
		v-1.714c0-2.351-1.286-5.016-3.931-8.148l-0.236-0.279v-3.579l2.044-0.682c0.272-0.091,0.456-0.346,0.456-0.633v-3.799
		c0-0.846-0.331-1.643-0.93-2.241c-0.599-0.598-1.395-0.928-2.24-0.928c0,0-0.001,0-0.001,0c-0.214,0.001-0.429,0.022-0.636,0.065
		c-1.484,0.341-2.557,1.716-2.525,3.264c0,0.795,0.227,1.545,0.657,2.188c0.667,1.001,1.01,2.135,1.01,3.306v3.015l-0.201,0.267
		c-0.94,1.248-1.458,2.796-1.459,4.358L2.002,46.996C2.001,47.549,1.554,47.996,1.002,47.996z"/>
</g>
<g>
	<path fill="#FFFFFF" d="M47,47.996c-0.552,0-1-0.447-1-0.999L45.993,34.46c0-1.562-0.518-3.109-1.458-4.359l-0.201-0.268V26.82
		c0-1.171,0.344-2.305,0.993-3.279c0.446-0.67,0.674-1.42,0.674-2.195c0.031-1.568-1.041-2.943-2.551-3.29
		c-1.69-0.346-3.368,0.764-3.719,2.476c-0.042,0.208-0.063,0.423-0.064,0.638v3.795c0,0.288,0.184,0.542,0.457,0.633l2.043,0.679
		v3.579l-0.235,0.279c-2.042,2.419-3.931,5.046-3.931,7.863v2c0,0.553-0.447,1-1,1s-1-0.447-1-1v-2c0-3.341,1.973-6.237,4.166-8.872
		v-1.406l-0.676-0.225c-1.092-0.366-1.824-1.383-1.824-2.531v-3.799c0.001-0.349,0.036-0.696,0.104-1.033
		c0.572-2.794,3.311-4.599,6.103-4.032c2.451,0.562,4.177,2.774,4.127,5.264c0,1.151-0.344,2.285-0.993,3.259
		c-0.446,0.67-0.674,1.42-0.674,2.195v2.355c1.072,1.543,1.659,3.406,1.659,5.283L48,46.995C48,47.548,47.553,47.996,47,47.996
		C47,47.996,47,47.996,47,47.996z"/>
</g>
<g>
	<path fill="#FFFFFF" d="M41.001,48h-34c-0.265,0-0.52-0.105-0.707-0.293l-2-2C4.106,45.52,4.001,45.265,4.001,45v-2
		c0-0.553,0.448-1,1-1h14c0.552,0,1,0.447,1,1s-0.448,1-1,1h-13v0.586L7.415,46h33.172l1.414-1.414V44h-20c-0.552,0-1-0.447-1-1
		s0.448-1,1-1h21c0.553,0,1,0.447,1,1v2c0,0.266-0.105,0.52-0.293,0.707l-2,2C41.521,47.895,41.267,48,41.001,48z"/>
</g>
<g>
	<path fill="#FFFFFF" d="M24.001,28c-2.757,0-5-2.243-5-5v-2c0-2.757,2.243-5,5-5s5,2.243,5,5v2C29.001,25.757,26.758,28,24.001,28z
		 M24.001,18c-1.654,0-3,1.346-3,3v2c0,1.654,1.346,3,3,3s3-1.346,3-3v-2C27.001,19.346,25.655,18,24.001,18z"/>
</g>
<g>
	<path fill="#FFFFFF" d="M15.001,41c-0.552,0-1-0.447-1-1v-5.362c0-2.003,1.189-3.807,3.03-4.596l3.97-1.701V27c0-0.553,0.448-1,1-1
		s1,0.447,1,1v2.659l-5.182,2.221c-1.104,0.474-1.818,1.556-1.818,2.758V40C16.001,40.553,15.553,41,15.001,41z"/>
</g>
<g>
	<path fill="#FFFFFF" d="M33.001,41c-0.553,0-1-0.447-1-1v-5.362c0-1.202-0.714-2.284-1.817-2.758l-5.183-2.221V27
		c0-0.553,0.447-1,1-1s1,0.447,1,1v1.341l3.97,1.701c1.841,0.789,3.03,2.593,3.03,4.596V40C34.001,40.553,33.554,41,33.001,41z"/>
</g>
<g>
	<path fill="#FFFFFF" d="M19.001,41c-0.552,0-1-0.447-1-1v-3c0-0.553,0.448-1,1-1s1,0.447,1,1v3C20.001,40.553,19.553,41,19.001,41z
		"/>
</g>
<g>
	<path fill="#FFFFFF" d="M29.001,41c-0.553,0-1-0.447-1-1v-3c0-0.553,0.447-1,1-1s1,0.447,1,1v3C30.001,40.553,29.554,41,29.001,41z
		"/>
</g>
<g>
	<path fill="#FFFFFF" d="M35.001,19c-0.26,0-0.516-0.102-0.707-0.293L29.587,14H18.415l-4.707,4.707
		c-0.287,0.286-0.716,0.371-1.09,0.217c-0.374-0.155-0.617-0.52-0.617-0.924v-4h-11c-0.552,0-1-0.448-1-1V1c0-0.552,0.448-1,1-1h46
		c0.553,0,1,0.448,1,1v12c0,0.552-0.447,1-1,1h-11v4c0,0.404-0.243,0.769-0.617,0.924C35.26,18.975,35.13,19,35.001,19z M18.001,12
		h12c0.266,0,0.52,0.105,0.707,0.293l3.293,3.293V13c0-0.552,0.447-1,1-1h11V2h-44v10h11c0.552,0,1,0.448,1,1v2.586l3.293-3.293
		C17.481,12.105,17.736,12,18.001,12z"/>
</g>
<g>
	<rect x="19.001" y="6" fill="#FFFFFF" width="2" height="2"/>
</g>
<g>
	<rect x="23.001" y="6" fill="#FFFFFF" width="2" height="2"/>
</g>
<g>
	<rect x="27.001" y="6" fill="#FFFFFF" width="2" height="2"/>
</g>
</svg>
