<?xml version="1.0" encoding="utf-8"?>
<!-- Generator: Adobe Illustrator 17.0.0, SVG Export Plug-In . SVG Version: 6.00 Build 0)  -->
<!DOCTYPE svg PUBLIC "-//W3C//DTD SVG 1.1//EN" "http://www.w3.org/Graphics/SVG/1.1/DTD/svg11.dtd">
<svg version="1.1" id="Camada_1" xmlns="http://www.w3.org/2000/svg" xmlns:xlink="http://www.w3.org/1999/xlink" x="0px" y="0px"
	 width="48px" height="48px" viewBox="0 0 48 48" enable-background="new 0 0 48 48" xml:space="preserve">
<g>
	<defs>
		<rect id="SVGID_1_" width="48" height="48"/>
	</defs>
	<use xlink:href="#SVGID_1_"  overflow="visible" fill="#FFFFFF"/>
	<clipPath id="SVGID_2_">
		<use xlink:href="#SVGID_1_"  overflow="visible"/>
	</clipPath>
	<g clip-path="url(#SVGID_2_)">
		<polygon fill="#FFFFFF" points="24,4 22,4 22,2 12,2 12,4 10,4 10,0 24,0 		"/>
	</g>
	<g clip-path="url(#SVGID_2_)">
		<path fill="#FFFFFF" d="M27,48H0V2h12v4h10V2h12v15c0,0.552-0.447,1-1,1s-1-0.448-1-1V4h-8v4H10V4H2v42h25c0.553,0,1,0.447,1,1
			S27.553,48,27,48z"/>
	</g>
</g>
<g>
	<path fill="#FFFFFF" d="M29,32c-0.553,0-1-0.447-1-1V8h-5c-0.552,0-1-0.448-1-1s0.448-1,1-1h7v25C30,31.553,29.553,32,29,32z"/>
</g>
<g>
	<g>
		<path fill="#FFFFFF" d="M37,32c-2.757,0-5-2.243-5-5v-2c0-2.757,2.243-5,5-5s5,2.243,5,5v2C42,29.757,39.757,32,37,32z M37,22
			c-1.654,0-3,1.346-3,3v2c0,1.654,1.346,3,3,3s3-1.346,3-3v-2C40,23.346,38.654,22,37,22z"/>
	</g>
	<g>
		<path fill="#FFFFFF" d="M47,48c-0.553,0-1-0.447-1-1v-8.362c0-1.202-0.714-2.284-1.817-2.758L38,33.708V31c0-0.553,0.447-1,1-1
			s1,0.447,1,1v1.292l4.908,1.726C46.811,34.831,48,36.635,48,38.638V47C48,47.553,47.553,48,47,48z"/>
	</g>
	<g>
		<path fill="#FFFFFF" d="M27,48c-0.553,0-1-0.447-1-1v-8.362c0-2.003,1.189-3.807,3.03-4.596l4.97-1.75V31c0-0.553,0.447-1,1-1
			s1,0.447,1,1v2.708l-6.244,2.196C28.714,36.354,28,37.436,28,38.638V47C28,47.553,27.553,48,27,48z"/>
	</g>
	<g>
		<path fill="#FFFFFF" d="M43,48c-0.553,0-1-0.447-1-1v-6c0-0.553,0.447-1,1-1s1,0.447,1,1v6C44,47.553,43.553,48,43,48z"/>
	</g>
	<g>
		<path fill="#FFFFFF" d="M31,48c-0.553,0-1-0.447-1-1v-6c0-0.553,0.447-1,1-1s1,0.447,1,1v6C32,47.553,31.553,48,31,48z"/>
	</g>
	<g>
		<polygon fill="#FFFFFF" points="24.042,44 4,44 4,6 8,6 8,8 6,8 6,42 24.042,42 		"/>
	</g>
	<g>
		<polygon fill="#FFFFFF" points="17,20.414 14.293,17.707 15.707,16.293 17,17.586 22.293,12.293 23.707,13.707 		"/>
	</g>
	<g>
		<path fill="#FFFFFF" d="M17.012,24.002c-0.399,0-0.802-0.041-1.203-0.122c-3.243-0.657-5.346-3.83-4.69-7.072
			c0.658-3.242,3.831-5.342,7.073-4.688c0.541,0.109,0.891,0.637,0.781,1.179s-0.633,0.893-1.179,0.781
			c-2.162-0.44-4.277,0.964-4.715,3.125c-0.438,2.162,0.965,4.277,3.127,4.715c1.046,0.211,2.113,0.003,3.004-0.587
			c0.89-0.59,1.498-1.492,1.709-2.538c0.109-0.542,0.638-0.894,1.178-0.782c0.542,0.109,0.892,0.637,0.782,1.178
			c-0.318,1.57-1.229,2.923-2.564,3.809C19.32,23.661,18.179,24.002,17.012,24.002z"/>
	</g>
	<g>
		<polygon fill="#FFFFFF" points="17,34.414 14.293,31.707 15.707,30.293 17,31.586 22.293,26.293 23.707,27.707 		"/>
	</g>
	<g>
		<path fill="#FFFFFF" d="M17.012,38.003c-0.4,0-0.802-0.04-1.203-0.121c-3.243-0.659-5.346-3.832-4.69-7.073
			c0.657-3.242,3.829-5.348,7.072-4.689c0.542,0.11,0.892,0.638,0.782,1.179c-0.109,0.542-0.637,0.893-1.178,0.782
			c-2.167-0.444-4.277,0.964-4.716,3.126c-0.438,2.16,0.965,4.276,3.127,4.715c1.044,0.213,2.112,0.004,3.003-0.586
			c0.891-0.591,1.498-1.492,1.71-2.539c0.109-0.542,0.638-0.892,1.178-0.782c0.542,0.11,0.892,0.638,0.782,1.179
			c-0.318,1.57-1.229,2.924-2.564,3.809C19.32,37.661,18.179,38.003,17.012,38.003z"/>
	</g>
</g>
</svg>
