<?xml version="1.0" encoding="utf-8"?>
<!-- Generator: Adobe Illustrator 17.0.0, SVG Export Plug-In . SVG Version: 6.00 Build 0)  -->
<!DOCTYPE svg PUBLIC "-//W3C//DTD SVG 1.1//EN" "http://www.w3.org/Graphics/SVG/1.1/DTD/svg11.dtd">
<svg version="1.1" id="Camada_1" xmlns="http://www.w3.org/2000/svg" xmlns:xlink="http://www.w3.org/1999/xlink" x="0px" y="0px"
	 width="47.999px" height="48.013px" viewBox="0 0 47.999 48.013" enable-background="new 0 0 47.999 48.013" xml:space="preserve">
<g>
	<path fill="#FFFFFF" d="M26.565,39.006h-5.132l-1.175-3.302l-1.887-0.782l-3.165,1.505l-3.629-3.628l1.505-3.166l-0.782-1.887
		L9,26.572v-5.131l3.302-1.175l0.782-1.887l-1.505-3.166l3.629-3.628l3.166,1.505l1.886-0.781l1.175-3.304h5.132l1.174,3.304
		l1.886,0.781l3.166-1.505l3.63,3.628l-1.506,3.167l0.781,1.886l3.303,1.173v5.132l-3.303,1.174l-0.781,1.887l1.506,3.166
		l-3.63,3.628l-3.165-1.505l-1.887,0.782L26.565,39.006z M22.845,37.006h2.309l1-2.81l3.527-1.462l2.694,1.28l1.634-1.632
		l-1.281-2.693l1.461-3.529l2.811-1v-2.308l-2.811-0.999l-1.461-3.53l1.281-2.694l-1.634-1.632l-2.693,1.281l-3.528-1.463l-1-2.811
		h-2.309l-0.999,2.811l-3.528,1.463l-2.694-1.281L13.99,15.63l1.281,2.694l-1.462,3.529L11,22.852v2.308l2.81,1l1.462,3.529
		l-1.281,2.693l1.633,1.632l2.693-1.28l3.529,1.462L22.845,37.006z"/>
</g>
<g>
	<g>
		<path fill="#FFFFFF" d="M24,28.181c-2.206,0-4-1.794-4-4c0-2.206,1.794-4,4-4s4,1.794,4,4C27.999,26.387,26.205,28.181,24,28.181z
			 M24,22.181c-1.103,0-2,0.897-2,2c0,1.103,0.897,2,2,2c1.102,0,2-0.897,2-2C25.999,23.078,25.102,22.181,24,22.181z"/>
	</g>
	<g>
		<path fill="#FFFFFF" d="M24.043,48.004c-8.071,0-15.961-4.062-20.489-11.428c-5.841-9.504-4.413-21.651,3.474-29.54
			c0.39-0.391,1.023-0.391,1.414,0c0.391,0.39,0.391,1.023,0,1.414c-7.229,7.231-8.539,18.367-3.184,27.079
			c6.354,10.336,19.93,13.575,30.267,7.223c0.469-0.29,1.086-0.144,1.375,0.328c0.29,0.471,0.143,1.086-0.328,1.375
			C32.663,46.858,28.326,48.004,24.043,48.004z"/>
	</g>
	<g>
		<path fill="#FFFFFF" d="M40.264,41.269c-0.256,0-0.512-0.098-0.707-0.293c-0.391-0.391-0.391-1.023,0-1.414
			c7.194-7.198,8.525-18.297,3.236-26.991C36.489,2.206,22.926-1.098,12.56,5.208c-0.471,0.288-1.086,0.137-1.374-0.335
			c-0.287-0.472-0.137-1.087,0.335-1.374c11.308-6.878,26.104-3.274,32.981,8.033c5.77,9.484,4.317,21.592-3.531,29.444
			C40.775,41.172,40.52,41.269,40.264,41.269z"/>
	</g>
	<g>
		<path fill="#FFFFFF" d="M9,13.006c-0.552,0-1-0.448-1-1v-4H4c-0.552,0-1-0.448-1-1s0.448-1,1-1h6v6
			C10,12.559,9.552,13.006,9,13.006z"/>
	</g>
	<g>
		<path fill="#FFFFFF" d="M43.999,42.007h-6v-6c0-0.553,0.447-1,1-1s1,0.447,1,1v4h4c0.553,0,1,0.447,1,1
			S44.552,42.007,43.999,42.007z"/>
	</g>
</g>
</svg>
