<?xml version="1.0" encoding="utf-8"?>
<!-- Generator: Adobe Illustrator 19.2.0, SVG Export Plug-In . SVG Version: 6.00 Build 0)  -->
<svg version="1.1" id="Layer_1" xmlns="http://www.w3.org/2000/svg" xmlns:xlink="http://www.w3.org/1999/xlink" x="0px" y="0px"
	 viewBox="0 0 2628.6 2221.4" style="enable-background:new 0 0 2628.6 2221.4;" xml:space="preserve">
<style type="text/css">
	.st0{fill:#FFFFFF;}
</style>
<g>
	<g>
		<path class="st0" d="M736.3,1739.9c-23.9,0-83.9-6.1-139.9-60.6c-82.8-80.7-117.3-228.5-102.5-439.3V354.2
			c0-26.9,21.8-48.6,48.6-48.6H1916c26.9,0,48.6,21.8,48.6,48.6v257c0,26.9-21.8,48.6-48.6,48.6s-48.6-21.8-48.6-48.6V402.8H591.2
			v838.9c0,1.2,0,2.3-0.1,3.5c-16,223.6,29.8,320.5,71.1,362.4c36.3,36.9,74,35.2,75.6,35.1l-0.9,0.1l9.5,96.8
			C744.8,1739.6,741.4,1739.9,736.3,1739.9z"/>
	</g>
	<g>
		<path class="st0" d="M1922.5,1739.7h-1181c-26.9,0-48.6-21.8-48.6-48.6V611.2c0-26.9,21.8-48.6,48.6-48.6h1373.4
			c26.9,0,48.6,21.8,48.6,48.6v887.5C2163.6,1631.6,2055.4,1739.7,1922.5,1739.7z M790.2,1642.5h1132.3
			c79.3,0,143.8-64.5,143.8-143.8V659.8H790.2V1642.5z"/>
	</g>
	<g>
		<path class="st0" d="M930.8,968.8V717h49.5l103,168.1V717h47.2v251.8h-51L978,804.6v164.2H930.8z"/>
		<path class="st0" d="M1184.3,968.8V717h186.7v42.6h-135.8v55.8h126.4v42.4h-126.4v68.5h140.6v42.4H1184.3z"/>
		<path class="st0" d="M1454.6,968.8L1394.5,717h52l38,172.9l46-172.9h60.5l44.1,175.9l38.6-175.9h51.2l-61.1,251.8h-53.9
			l-50.1-188.2l-50,188.2H1454.6z"/>
		<path class="st0" d="M1737.9,886.9l49.5-4.8c3,16.6,9,28.8,18.1,36.6c9.1,7.8,21.4,11.7,36.8,11.7c16.4,0,28.7-3.5,37-10.4
			c8.3-6.9,12.4-15,12.4-24.3c0-6-1.7-11-5.2-15.2c-3.5-4.2-9.6-7.8-18.3-10.9c-6-2.1-19.5-5.7-40.7-11
			c-27.2-6.8-46.4-15.1-57.4-24.9c-15.5-13.8-23.2-30.7-23.2-50.7c0-12.8,3.6-24.8,10.9-36c7.3-11.2,17.7-19.7,31.4-25.5
			c13.7-5.8,30.2-8.8,49.5-8.8c31.6,0,55.4,6.9,71.4,20.8c16,13.9,24.4,32.3,25.2,55.5l-50.8,2.2c-2.2-12.9-6.8-22.2-14-27.9
			c-7.2-5.7-17.9-8.5-32.2-8.5c-14.8,0-26.3,3-34.7,9.1c-5.4,3.9-8.1,9.1-8.1,15.6c0,6,2.5,11.1,7.6,15.3c6.4,5.4,22,11,46.7,16.8
			c24.7,5.8,43,11.9,54.9,18.1c11.8,6.2,21.1,14.8,27.8,25.6c6.7,10.8,10,24.2,10,40.1c0,14.4-4,27.9-12,40.5
			c-8,12.6-19.3,22-34,28.1c-14.7,6.1-32.9,9.2-54.8,9.2c-31.8,0-56.3-7.4-73.3-22.1C1751.4,936.5,1741.3,915,1737.9,886.9z"/>
	</g>
	<g>
		<path class="st0" d="M1985,1146.9H884.9c-26.9,0-48.6-21.8-48.6-48.6c0-26.8,21.8-48.6,48.6-48.6H1985c26.9,0,48.6,21.8,48.6,48.6
			C2033.6,1125.1,2011.8,1146.9,1985,1146.9z"/>
	</g>
	<g>
		<path class="st0" d="M1537.4,1322.2H884.9c-26.9,0-48.6-21.8-48.6-48.6s21.8-48.6,48.6-48.6h652.5c26.9,0,48.6,21.8,48.6,48.6
			S1564.3,1322.2,1537.4,1322.2z"/>
	</g>
	<g>
		<path class="st0" d="M1537.4,1516.3H884.9c-26.9,0-48.6-21.8-48.6-48.6s21.8-48.6,48.6-48.6h652.5c26.9,0,48.6,21.8,48.6,48.6
			S1564.3,1516.3,1537.4,1516.3z"/>
	</g>
	<g>
		<path class="st0" d="M1941.9,1562.1h-264.2c-26.9,0-48.6-21.8-48.6-48.6v-275c0-26.9,21.8-48.6,48.6-48.6h264.2
			c26.9,0,48.6,21.8,48.6,48.6v275C1990.5,1540.4,1968.7,1562.1,1941.9,1562.1z M1726.2,1464.9h167v-177.8h-167V1464.9z"/>
	</g>
</g>
</svg>
