<?xml version="1.0" encoding="utf-8"?>
<!-- Generator: Adobe Illustrator 17.0.0, SVG Export Plug-In . SVG Version: 6.00 Build 0)  -->
<!DOCTYPE svg PUBLIC "-//W3C//DTD SVG 1.1//EN" "http://www.w3.org/Graphics/SVG/1.1/DTD/svg11.dtd">
<svg version="1.1" id="Camada_1" xmlns="http://www.w3.org/2000/svg" xmlns:xlink="http://www.w3.org/1999/xlink" x="0px" y="0px"
	 width="48px" height="43.965px" viewBox="0 0 48 43.965" enable-background="new 0 0 48 43.965" xml:space="preserve">
<g>
	<path fill="#FFFFFF" d="M25.244,43.964c-0.662,0-1.332-0.182-1.932-0.562l-1.218-0.718c-0.476-0.28-0.634-0.894-0.353-1.369
		c0.281-0.477,0.894-0.632,1.37-0.354l1.244,0.734c0.783,0.495,1.787,0.269,2.265-0.485c0.232-0.366,0.308-0.8,0.213-1.223
		c-0.095-0.422-0.348-0.782-0.713-1.014l-1.575-0.998c-0.467-0.296-0.605-0.913-0.31-1.38c0.295-0.467,0.912-0.606,1.38-0.31
		l1.575,0.998c0.816,0.518,1.383,1.322,1.595,2.267c0.211,0.943,0.042,1.913-0.476,2.729C27.621,43.369,26.445,43.964,25.244,43.964
		z"/>
</g>
<g>
	<path fill="#FFFFFF" d="M30.633,41.176c-0.678,0-1.344-0.192-1.931-0.564l-4.157-2.635c-0.467-0.296-0.605-0.913-0.31-1.38
		c0.295-0.467,0.912-0.606,1.38-0.31l4.157,2.635c0.366,0.232,0.801,0.306,1.223,0.213c0.422-0.095,0.782-0.349,1.015-0.715
		c0.479-0.755,0.253-1.758-0.502-2.236l-4.157-2.636c-0.467-0.296-0.605-0.914-0.31-1.38c0.296-0.468,0.915-0.604,1.38-0.31
		l4.157,2.636c0.817,0.518,1.384,1.322,1.596,2.266c0.211,0.943,0.043,1.913-0.475,2.73s-1.323,1.384-2.267,1.596
		C31.167,41.146,30.899,41.176,30.633,41.176z"/>
</g>
<g>
	<path fill="#FFFFFF" d="M36.022,38.384c-0.679,0-1.345-0.192-1.932-0.564l-6.739-4.271c-0.467-0.296-0.605-0.914-0.31-1.38
		c0.295-0.467,0.913-0.607,1.38-0.31l6.739,4.271c0.366,0.233,0.8,0.308,1.223,0.213s0.783-0.349,1.015-0.714
		c0.232-0.366,0.308-0.8,0.213-1.223s-0.349-0.783-0.714-1.015l-6.74-4.271c-0.467-0.296-0.605-0.913-0.31-1.38
		c0.295-0.467,0.912-0.606,1.38-0.31l6.74,4.271c0.817,0.518,1.384,1.322,1.595,2.267c0.212,0.944,0.043,1.914-0.475,2.73
		c-0.518,0.817-1.322,1.384-2.267,1.595C36.556,38.354,36.288,38.384,36.022,38.384z"/>
</g>
<g>
	<path fill="#FFFFFF" d="M7.599,36.001c-0.631,0-1.252-0.172-1.796-0.497C5,35.022,4.433,34.257,4.206,33.351
		c-0.227-0.907-0.087-1.849,0.394-2.65C5.229,29.652,6.379,29,7.604,29c0.631,0,1.253,0.173,1.797,0.499
		c0.802,0.48,1.368,1.244,1.595,2.151c0.228,0.906,0.088,1.848-0.393,2.649C9.975,35.348,8.824,36.001,7.599,36.001z M7.604,31
		c-0.534,0-1.016,0.273-1.289,0.729c-0.206,0.344-0.266,0.747-0.168,1.136c0.097,0.389,0.34,0.717,0.684,0.923
		c0.693,0.415,1.646,0.171,2.058-0.517c0.206-0.344,0.266-0.747,0.168-1.135c-0.097-0.389-0.34-0.717-0.684-0.923
		C8.14,31.074,7.874,31,7.604,31z"/>
</g>
<g>
	<path fill="#FFFFFF" d="M11.887,38.571c-0.631,0-1.253-0.172-1.797-0.498c-1.654-0.991-2.194-3.146-1.203-4.801l1.028-1.716
		c0.63-1.05,1.781-1.701,3.006-1.701c0.632,0,1.253,0.172,1.796,0.498c1.654,0.993,2.193,3.147,1.203,4.802l-1.029,1.716
		C14.262,37.92,13.111,38.571,11.887,38.571z M12.921,31.855c-0.534,0-1.016,0.272-1.291,0.729l-1.027,1.715
		c-0.425,0.71-0.194,1.633,0.515,2.059c0.693,0.415,1.645,0.172,2.058-0.517l1.028-1.715c0.424-0.709,0.193-1.633-0.517-2.059
		C13.457,31.928,13.191,31.855,12.921,31.855z"/>
</g>
<g>
	<path fill="#FFFFFF" d="M16.176,41.142c-0.631,0-1.253-0.173-1.797-0.499c-1.655-0.992-2.194-3.146-1.203-4.801l1.542-2.573
		c0.629-1.05,1.781-1.702,3.005-1.702c0.632,0,1.253,0.173,1.797,0.499c1.655,0.992,2.194,3.146,1.203,4.802l-1.542,2.573
		C18.552,40.49,17.401,41.142,16.176,41.142z M17.724,33.567c-0.534,0-1.016,0.273-1.29,0.729l-1.542,2.573
		c-0.425,0.71-0.194,1.633,0.515,2.059c0.695,0.415,1.646,0.17,2.058-0.516l1.542-2.572c0.425-0.71,0.194-1.634-0.515-2.06
		C18.259,33.641,17.993,33.567,17.724,33.567z"/>
</g>
<g>
	<path fill="#FFFFFF" d="M20.465,43.712c-0.632,0-1.253-0.173-1.797-0.499c-0.802-0.48-1.369-1.244-1.596-2.151
		c-0.228-0.907-0.087-1.848,0.394-2.65c0.629-1.049,1.78-1.7,3.004-1.7c0.631,0,1.253,0.173,1.797,0.499
		c1.655,0.992,2.194,3.146,1.203,4.8C22.84,43.06,21.689,43.712,20.465,43.712z M20.47,38.712c-0.533,0-1.015,0.272-1.289,0.729
		c-0.206,0.344-0.266,0.746-0.168,1.135c0.098,0.389,0.34,0.717,0.684,0.923c0.694,0.416,1.646,0.17,2.058-0.516
		c0.425-0.709,0.194-1.632-0.515-2.058C21.005,38.786,20.739,38.712,20.47,38.712z"/>
</g>
<g>
	<path fill="#FFFFFF" d="M41.396,35.594c-0.666,0-1.339-0.182-1.938-0.563l-9.301-5.911c-0.467-0.296-0.604-0.914-0.308-1.38
		c0.296-0.466,0.914-0.604,1.38-0.308l9.301,5.911c0.754,0.477,1.759,0.259,2.246-0.487c0.491-0.756,0.277-1.771-0.478-2.262
		l-7.765-5.368c-1.213-0.837-2.629-1.279-4.1-1.279c-0.021,0-0.043,0-0.065,0l-5.556,0.051l-3.101,2.59
		c-1.354,1.363-3.693,1.391-5.147-0.001c-0.719-0.688-1.127-1.615-1.149-2.61c-0.022-0.995,0.345-1.939,1.034-2.659l0.088-0.089
		l5.812-4.987c0.418-0.36,1.049-0.312,1.41,0.108c0.36,0.419,0.311,1.05-0.108,1.41l-5.775,4.954
		c-0.302,0.321-0.472,0.758-0.462,1.219c0.01,0.461,0.199,0.891,0.532,1.209c0.673,0.645,1.757,0.632,2.416-0.027l3.718-3.11
		l6.271-0.057c0.027,0,0.056,0,0.084,0c1.878,0,3.687,0.564,5.235,1.635l7.695,5.322c1.702,1.107,2.179,3.363,1.088,5.042
		C43.759,35.012,42.588,35.594,41.396,35.594z"/>
</g>
<g>
	<path fill="#FFFFFF" d="M6.999,31c-0.19,0-0.383-0.055-0.554-0.168L3.697,29H1c-0.552,0-1-0.447-1-1s0.448-1,1-1h3.303l3.252,2.168
		c0.459,0.307,0.583,0.927,0.277,1.387C7.639,30.843,7.322,31,6.999,31z"/>
</g>
<g>
	<path fill="#FFFFFF" d="M42.217,30.228c-0.316,0-0.627-0.149-0.821-0.429c-0.316-0.453-0.204-1.076,0.249-1.392l2.014-1.402
		l3.303-0.064c0.007,0,0.014,0,0.02,0c0.544,0,0.989,0.435,1,0.98c0.011,0.552-0.429,1.009-0.98,1.02l-2.697,0.053l-1.516,1.055
		C42.613,30.17,42.414,30.228,42.217,30.228z"/>
</g>
<g>
	<path fill="#FFFFFF" d="M7,22c-0.147,0-0.295-0.033-0.433-0.099C6.22,21.735,6,21.384,6,21v-3H1c-0.552,0-1-0.448-1-1V1
		c0-0.552,0.448-1,1-1h11c0.552,0,1,0.448,1,1s-0.448,1-1,1H2v14h5c0.552,0,1,0.448,1,1v1.919l3.375-2.7
		C11.553,16.077,11.773,16,12,16h20V7c0-0.552,0.447-1,1-1s1,0.448,1,1v10c0,0.552-0.447,1-1,1H12.351l-4.726,3.781
		C7.444,21.925,7.223,22,7,22z"/>
</g>
<g>
	<path fill="#FFFFFF" d="M41,22c-0.26,0-0.516-0.102-0.707-0.293l-4-4c-0.391-0.391-0.391-1.023,0-1.414s1.023-0.391,1.414,0
		L40,18.586V17c0-0.552,0.447-1,1-1h5V2H16v9c0,0.552-0.448,1-1,1s-1-0.448-1-1V1c0-0.552,0.448-1,1-1h32c0.553,0,1,0.448,1,1v16
		c0,0.552-0.447,1-1,1h-5v3c0,0.404-0.243,0.769-0.617,0.924C41.259,21.975,41.129,22,41,22z"/>
</g>
<g>
	<path fill="#FFFFFF" d="M15,12.5c-0.256,0-0.512-0.098-0.707-0.293l-3-3c-0.391-0.391-0.391-1.023,0-1.414s1.023-0.391,1.414,0
		L15,10.086l2.293-2.293c0.391-0.391,1.023-0.391,1.414,0s0.391,1.023,0,1.414l-3,3C15.512,12.402,15.256,12.5,15,12.5z"/>
</g>
<g>
	<path fill="#FFFFFF" d="M36,11c-0.256,0-0.512-0.098-0.707-0.293L33,8.414l-2.293,2.293c-0.391,0.391-1.023,0.391-1.414,0
		s-0.391-1.023,0-1.414l3-3c0.391-0.391,1.023-0.391,1.414,0l3,3c0.391,0.391,0.391,1.023,0,1.414C36.512,10.902,36.256,11,36,11z"
		/>
</g>
</svg>
