<?xml version="1.0" encoding="utf-8"?>
<!-- Generator: Adobe Illustrator 19.2.0, SVG Export Plug-In . SVG Version: 6.00 Build 0)  -->
<svg version="1.1" id="Layer_1" xmlns="http://www.w3.org/2000/svg" xmlns:xlink="http://www.w3.org/1999/xlink" x="0px" y="0px"
	 viewBox="0 0 2628.6 2221.4" style="enable-background:new 0 0 2628.6 2221.4;" xml:space="preserve">
<style type="text/css">
	.st0{fill:#FFFFFF;}
</style>
<g>
	<g>
		<path d="M-2790.6,547.9c-0.8,0-1.6-0.1-2.4-0.3l-192.4-52.1c-3.9-1.1-6.6-4.6-6.6-8.7v-115c0-4.1,2.7-7.6,6.6-8.7L-2793,311
			c2.7-0.7,5.6-0.2,7.8,1.5c2.2,1.7,3.5,4.3,3.5,7.1v219.2c0,2.8-1.3,5.4-3.5,7.1C-2786.7,547.3-2788.6,547.9-2790.6,547.9z
			 M-2974,479.9l174.4,47.3V331.5l-174.4,47.3V479.9z"/>
	</g>
	<g>
		<path d="M-3018.7,482.4h-61.7c-13,0-23.6-10.6-23.6-23.6v-68.2c0-13,10.6-23.6,23.6-23.6h61.7c5,0,9,4,9,9v97.3
			C-3009.7,478.4-3013.8,482.4-3018.7,482.4z M-3080.4,385.1c-3.1,0-5.6,2.5-5.6,5.6v68.2c0,3.1,2.5,5.6,5.6,5.6h52.7v-79.3H-3080.4
			z"/>
	</g>
	<g>
		<path d="M-2997.6,519.8h-6.6c-13,0-23.6-10.6-23.6-23.6V362.3c0-13,10.6-23.6,23.6-23.6h6.6c13,0,23.6,10.6,23.6,23.6v133.9
			C-2974,509.3-2984.6,519.8-2997.6,519.8z M-3004.2,356.8c-3.1,0-5.6,2.5-5.6,5.6v133.9c0,3.1,2.5,5.6,5.6,5.6h6.6
			c3.1,0,5.6-2.5,5.6-5.6V362.3c0-3.1-2.5-5.6-5.6-5.6H-3004.2z"/>
	</g>
	<g>
		<path d="M-2761.4,378.1c-3.3,0-6.6-1.9-8.1-5.1c-2.2-4.5-0.3-9.9,4.2-12l66.3-32.1c4.5-2.2,9.9-0.3,12,4.2c2.2,4.5,0.3,9.9-4.2,12
			l-66.3,32.1C-2758.8,377.8-2760.1,378.1-2761.4,378.1z"/>
	</g>
	<g>
		<path d="M-2695.1,514.4c-1.3,0-2.6-0.3-3.9-0.9l-66.3-32.1c-4.5-2.2-6.3-7.5-4.2-12c2.2-4.5,7.5-6.3,12-4.2l66.3,32.1
			c4.5,2.2,6.3,7.5,4.2,12C-2688.6,512.6-2691.8,514.4-2695.1,514.4z"/>
	</g>
	<g>
		<path d="M-2695.1,430.2h-66.3c-5,0-9-4-9-9c0-5,4-9,9-9h66.3c5,0,9,4,9,9C-2686.1,426.2-2690.1,430.2-2695.1,430.2z"/>
	</g>
	<g>
		<path d="M-3054.3,575.2c-14.9,0-27-12.1-27-27v-83.8h54v83.8C-3027.2,563.1-3039.4,575.2-3054.3,575.2z M-3063.3,482.4v65.8
			c0,5,4,9,9,9c5,0,9-4,9-9v-65.8H-3063.3z"/>
	</g>
</g>
<g>
	<g>
		<path d="M-2104.8,598.1h-335.5c-5,0-9-4-9-9V376.7c0-5,4-9,9-9h335.5c5,0,9,4,9,9v212.3C-2095.8,594.1-2099.8,598.1-2104.8,598.1z
			 M-2431.3,580.1h317.5V385.7h-317.5V580.1z"/>
	</g>
	<g>
		<g>
			<path d="M-2288.5,380.4c-3.1,0-6-1.6-7.7-4.4l-61.4-102.6c-2.6-4.3-1.2-9.8,3.1-12.3c4.3-2.6,9.8-1.2,12.3,3.1l61.4,102.6
				c2.6,4.3,1.2,9.8-3.1,12.3C-2285.4,380-2286.9,380.4-2288.5,380.4z"/>
		</g>
		<g>
			<path d="M-2250.1,380.4c-1.4,0-2.9-0.3-4.2-1.1c-4.4-2.4-6-7.8-3.7-12.2l55-102.6c2.4-4.4,7.8-6,12.2-3.7c4.4,2.4,6,7.8,3.7,12.2
				l-55,102.6C-2243.8,378.7-2246.9,380.4-2250.1,380.4z"/>
		</g>
	</g>
	<g>
		<path d="M-2135.2,566.9h-274.7c-5,0-9-4-9-9V404.5c0-5,4-9,9-9h274.7c5,0,9,4,9,9v153.4C-2126.2,562.9-2130.2,566.9-2135.2,566.9z
			 M-2400.9,548.9h256.7V413.5h-256.7V548.9z"/>
	</g>
	<g>
		<path d="M-2310.5,472.1c-2.3,0-4.6-0.9-6.4-2.6c-3.5-3.5-3.5-9.2,0-12.7l22.5-22.5c3.5-3.5,9.2-3.5,12.7,0c3.5,3.5,3.5,9.2,0,12.7
			l-22.5,22.5C-2305.9,471.3-2308.2,472.1-2310.5,472.1z"/>
	</g>
	<g>
		<path d="M-2265.6,517.1c-2.3,0-4.6-0.9-6.4-2.6c-3.5-3.5-3.5-9.2,0-12.7l22.5-22.5c3.5-3.5,9.2-3.5,12.7,0c3.5,3.5,3.5,9.2,0,12.7
			l-22.5,22.5C-2261,516.2-2263.3,517.1-2265.6,517.1z"/>
	</g>
	<g>
		<path d="M-2304.3,510.9c-2.3,0-4.6-0.9-6.4-2.6c-3.5-3.5-3.5-9.2,0-12.7l55.1-55.1c3.5-3.5,9.2-3.5,12.7,0c3.5,3.5,3.5,9.2,0,12.7
			l-55.1,55.1C-2299.7,510-2302,510.9-2304.3,510.9z"/>
	</g>
</g>
<g>
	<path d="M-2925.8,1070.3c-45.1,0-81.9-36.7-81.9-81.9s36.7-81.9,81.9-81.9c45.1,0,81.9,36.7,81.9,81.9
		S-2880.7,1070.3-2925.8,1070.3z M-2925.8,924.6c-35.2,0-63.9,28.6-63.9,63.9c0,35.2,28.6,63.9,63.9,63.9s63.9-28.6,63.9-63.9
		C-2862,953.2-2890.6,924.6-2925.8,924.6z"/>
</g>
<g>
	<path d="M-2925.8,1070.3c-5,0-9-4-9-9V921.6c0-5,4-9,9-9s9,4,9,9v139.6C-2916.8,1066.2-2920.9,1070.3-2925.8,1070.3z"/>
</g>
<g>
	<path d="M-2906.3,1063.9c-1.3,0-2.6-0.3-3.8-0.9c-4.5-2.1-6.4-7.5-4.3-12c8.7-18.5,13.3-40.1,13.3-62.6c0-22.8-4.7-44.7-13.6-63.3
		c-2.1-4.5-0.3-9.9,4.2-12c4.5-2.1,9.9-0.3,12,4.2c10.1,21,15.4,45.6,15.4,71c0,25.1-5.2,49.4-15,70.3
		C-2899.7,1062-2902.9,1063.9-2906.3,1063.9z"/>
</g>
<g>
	<path d="M-2947.2,1063.9c-3.4,0-6.6-1.9-8.1-5.2c-9.8-20.8-15-45.1-15-70.3c0-25.5,5.3-50,15.4-71c2.1-4.5,7.5-6.4,12-4.2
		c4.5,2.1,6.4,7.5,4.2,12c-8.9,18.6-13.6,40.5-13.6,63.3c0,22.5,4.6,44.1,13.3,62.6c2.1,4.5,0.2,9.9-4.3,12
		C-2944.6,1063.6-2945.9,1063.9-2947.2,1063.9z"/>
</g>
<g>
	<path d="M-2857,997.1h-137.7c-5,0-9-4-9-9s4-9,9-9h137.7c5,0,9,4,9,9S-2852,997.1-2857,997.1z"/>
</g>
<g>
	<path d="M-2821,1199.6h-209.6c-14.8,0-26.9-12.1-26.9-26.9V804.1c0-14.8,12.1-26.9,26.9-26.9h209.6c14.8,0,26.9,12.1,26.9,26.9
		v368.6C-2794.1,1187.5-2806.2,1199.6-2821,1199.6z M-3030.6,795.2c-4.9,0-8.9,4-8.9,8.9v368.6c0,4.9,4,8.9,8.9,8.9h209.6
		c4.9,0,8.9-4,8.9-8.9V804.1c0-4.9-4-8.9-8.9-8.9H-3030.6z"/>
</g>
<g>
	<path d="M-2842.9,1170.1h-165.9c-12.8,0-23.2-10.9-23.2-24.3V831c0-13.4,10.4-24.3,23.2-24.3h165.9c12.8,0,23.2,10.9,23.2,24.3
		v314.8C-2819.7,1159.2-2830.1,1170.1-2842.9,1170.1z M-3008.8,824.7c-2.8,0-5.2,2.8-5.2,6.3v314.8c0,3.5,2.3,6.3,5.2,6.3h165.9
		c2.8,0,5.2-2.8,5.2-6.3V831c0-3.5-2.3-6.3-5.2-6.3H-3008.8z"/>
</g>
<g>
	<g>
		<path d="M-946.4,560.9h-302.7c-15.6,0-28.2-12.7-28.2-28.2V332.8c0-15.6,12.7-28.2,28.2-28.2h302.7c15.6,0,28.2,12.7,28.2,28.2
			v199.9C-918.2,548.2-930.8,560.9-946.4,560.9z M-1249.1,322.6c-5.6,0-10.2,4.6-10.2,10.2v199.9c0,5.6,4.6,10.2,10.2,10.2h302.7
			c5.6,0,10.2-4.6,10.2-10.2V332.8c0-5.6-4.6-10.2-10.2-10.2H-1249.1z"/>
	</g>
	<g>
		<path d="M-1067,602.3h-61.5c-5,0-9-4-9-9v-41.4c0-5,4-9,9-9h61.5c5,0,9,4,9,9v41.4C-1058,598.2-1062,602.3-1067,602.3z
			 M-1119.5,584.3h43.5v-23.4h-43.5V584.3z"/>
	</g>
	<g>
		<path d="M-1097.7,509.5c-42.3,0-76.7-34.4-76.7-76.7c0-42.3,34.4-76.7,76.7-76.7c42.3,0,76.7,34.4,76.7,76.7
			C-1021.1,475.1-1055.5,509.5-1097.7,509.5z M-1097.7,374.1c-32.4,0-58.7,26.3-58.7,58.7c0,32.4,26.3,58.7,58.7,58.7
			c32.4,0,58.7-26.3,58.7-58.7C-1039.1,400.4-1065.4,374.1-1097.7,374.1z"/>
	</g>
	<g>
		<path d="M-1097.7,509.5c-5,0-9-4-9-9V370.7c0-5,4-9,9-9c5,0,9,4,9,9v129.7C-1088.7,505.4-1092.8,509.5-1097.7,509.5z"/>
	</g>
	<g>
		<path d="M-1030.6,602.3h-134.3c-5,0-9-4-9-9s4-9,9-9h134.3c5,0,9,4,9,9S-1025.6,602.3-1030.6,602.3z"/>
	</g>
	<g>
		<path d="M-1079.6,503.5c-1.3,0-2.6-0.3-3.8-0.9c-4.5-2.1-6.4-7.5-4.3-12c8-17.1,12.3-37.1,12.3-57.9c0-21.1-4.4-41.3-12.6-58.5
			c-2.1-4.5-0.3-9.9,4.2-12c4.5-2.1,9.9-0.3,12,4.2c9.4,19.6,14.4,42.5,14.4,66.3c0,23.4-4.8,46.1-14,65.6
			C-1073,501.6-1076.2,503.5-1079.6,503.5z"/>
	</g>
	<g>
		<path d="M-1117.6,503.5c-3.4,0-6.6-1.9-8.1-5.2c-9.2-19.4-14-42.1-14-65.6c0-23.7,5-46.7,14.4-66.3c2.1-4.5,7.5-6.4,12-4.2
			c4.5,2.1,6.4,7.5,4.2,12c-8.2,17.2-12.6,37.4-12.6,58.5c0,20.8,4.3,40.8,12.3,57.9c2.1,4.5,0.2,9.9-4.3,12
			C-1115,503.3-1116.3,503.5-1117.6,503.5z"/>
	</g>
	<g>
		<path d="M-1033.8,441.5h-127.9c-5,0-9-4-9-9s4-9,9-9h127.9c5,0,9,4,9,9S-1028.8,441.5-1033.8,441.5z"/>
	</g>
	<g>
		<path d="M-937.1,348.4h-325.8c-5,0-9-4-9-9c0-5,4-9,9-9h325.8c5,0,9,4,9,9C-928.1,344.4-932.2,348.4-937.1,348.4z"/>
	</g>
	<g>
		<path d="M-937.1,529.2h-325.8c-5,0-9-4-9-9c0-5,4-9,9-9h325.8c5,0,9,4,9,9C-928.1,525.2-932.2,529.2-937.1,529.2z"/>
	</g>
</g>
<g>
	<path class="st0" d="M2210.9,1407.2H457.2c-25.3,0-45.9-20.5-45.9-45.9V331.6c0-25.3,20.5-45.9,45.9-45.9h1753.7
		c25.3,0,45.9,20.5,45.9,45.9v1029.8C2256.8,1386.7,2236.2,1407.2,2210.9,1407.2z M503,1315.5h1662v-938H503V1315.5z"/>
</g>
<g>
	<path class="st0" d="M1463.8,1972.8h-259.6c-25.3,0-45.9-20.5-45.9-45.9v-565.6c0-25.3,20.5-45.9,45.9-45.9h259.6
		c25.3,0,45.9,20.5,45.9,45.9v565.6C1509.7,1952.3,1489.2,1972.8,1463.8,1972.8z M1250.1,1881.1H1418v-473.8h-167.9V1881.1z"/>
</g>
<g>
	<path class="st0" d="M1725.9,1972.8H942.1c-25.3,0-45.9-20.5-45.9-45.9c0-25.3,20.5-45.9,45.9-45.9h783.8
		c25.3,0,45.9,20.5,45.9,45.9C1771.8,1952.3,1751.2,1972.8,1725.9,1972.8z"/>
</g>
<g>
	<g>
		<g>
			<path class="st0" d="M808.6,578.3c-25.3,0-45.9-20.5-45.9-45.9V331.6c0-25.3,20.5-45.9,45.9-45.9c25.3,0,45.9,20.5,45.9,45.9
				v200.9C854.5,557.8,834,578.3,808.6,578.3z"/>
		</g>
		<g>
			<path class="st0" d="M902.5,606.1H714.8c-25.3,0-45.9-20.5-45.9-45.9c0-25.3,20.5-45.9,45.9-45.9h187.8
				c25.3,0,45.9,20.5,45.9,45.9C948.4,585.6,927.9,606.1,902.5,606.1z"/>
		</g>
	</g>
	<g>
		<g>
			<path class="st0" d="M1334,578.3c-25.3,0-45.9-20.5-45.9-45.9V331.6c0-25.3,20.5-45.9,45.9-45.9s45.9,20.5,45.9,45.9v200.9
				C1379.9,557.8,1359.4,578.3,1334,578.3z"/>
		</g>
		<g>
			<path class="st0" d="M1427.9,606.1h-187.8c-25.3,0-45.9-20.5-45.9-45.9c0-25.3,20.5-45.9,45.9-45.9h187.8
				c25.3,0,45.9,20.5,45.9,45.9C1473.8,585.6,1453.3,606.1,1427.9,606.1z"/>
		</g>
	</g>
	<g>
		<g>
			<path class="st0" d="M1859.4,578.3c-25.3,0-45.9-20.5-45.9-45.9V331.6c0-25.3,20.5-45.9,45.9-45.9s45.9,20.5,45.9,45.9v200.9
				C1905.3,557.8,1884.7,578.3,1859.4,578.3z"/>
		</g>
		<g>
			<path class="st0" d="M1953.3,606.1h-187.8c-25.3,0-45.9-20.5-45.9-45.9c0-25.3,20.5-45.9,45.9-45.9h187.8
				c25.3,0,45.9,20.5,45.9,45.9C1999.2,585.6,1978.6,606.1,1953.3,606.1z"/>
		</g>
	</g>
</g>
<g>
	<path class="st0" d="M1953.3,1264.1H714.8c-25.3,0-45.9-20.5-45.9-45.9c0-25.3,20.5-45.9,45.9-45.9h1238.5
		c25.3,0,45.9,20.5,45.9,45.9C1999.2,1243.6,1978.6,1264.1,1953.3,1264.1z"/>
</g>
<g>
	<g>
		<path d="M-1125.3,999.4h-12.8l-5.1-13.2h-23.2l-4.8,13.2h-12.4l22.6-58.1h12.4L-1125.3,999.4z M-1146.9,976.4l-8-21.6l-7.8,21.6
			H-1146.9z"/>
		<path d="M-1119.1,941.3h21.4c4.8,0,8.5,0.4,11.1,1.1c3.4,1,6.3,2.8,8.8,5.3c2.4,2.6,4.3,5.7,5.5,9.4c1.3,3.7,1.9,8.3,1.9,13.7
			c0,4.8-0.6,8.9-1.8,12.4c-1.5,4.2-3.5,7.6-6.2,10.3c-2,2-4.8,3.5-8.2,4.6c-2.6,0.8-6,1.2-10.4,1.2h-22.1V941.3z M-1107.4,951.2
			v38.5h8.8c3.3,0,5.6-0.2,7.1-0.6c1.9-0.5,3.5-1.3,4.7-2.4c1.3-1.1,2.3-3,3.1-5.6c0.8-2.6,1.2-6.1,1.2-10.6c0-4.5-0.4-7.9-1.2-10.3
			c-0.8-2.4-1.9-4.3-3.3-5.6c-1.4-1.3-3.2-2.3-5.4-2.7c-1.6-0.4-4.8-0.6-9.6-0.6H-1107.4z"/>
		<path d="M-1063.5,980.5l11.4-1.1c0.7,3.8,2.1,6.6,4.2,8.4c2.1,1.8,4.9,2.7,8.5,2.7c3.8,0,6.6-0.8,8.5-2.4c1.9-1.6,2.9-3.5,2.9-5.6
			c0-1.4-0.4-2.5-1.2-3.5c-0.8-1-2.2-1.8-4.2-2.5c-1.4-0.5-4.5-1.3-9.4-2.5c-6.3-1.6-10.7-3.5-13.2-5.7c-3.6-3.2-5.3-7.1-5.3-11.7
			c0-3,0.8-5.7,2.5-8.3c1.7-2.6,4.1-4.5,7.3-5.9c3.2-1.3,7-2,11.4-2c7.3,0,12.8,1.6,16.5,4.8c3.7,3.2,5.6,7.5,5.8,12.8l-11.7,0.5
			c-0.5-3-1.6-5.1-3.2-6.4c-1.7-1.3-4.1-2-7.4-2c-3.4,0-6.1,0.7-8,2.1c-1.2,0.9-1.9,2.1-1.9,3.6c0,1.4,0.6,2.5,1.7,3.5
			c1.5,1.2,5.1,2.5,10.8,3.9c5.7,1.3,9.9,2.7,12.7,4.2c2.7,1.4,4.9,3.4,6.4,5.9c1.5,2.5,2.3,5.6,2.3,9.3c0,3.3-0.9,6.4-2.8,9.4
			c-1.8,2.9-4.5,5.1-7.8,6.5c-3.4,1.4-7.6,2.1-12.6,2.1c-7.3,0-13-1.7-16.9-5.1C-1060.3,992-1062.7,987-1063.5,980.5z"/>
	</g>
	<g>
		<path d="M-946.4,1105.9h-302.7c-15.6,0-28.2-12.7-28.2-28.2V877.8c0-15.6,12.7-28.2,28.2-28.2h302.7c15.6,0,28.2,12.7,28.2,28.2
			v199.9C-918.2,1093.2-930.8,1105.9-946.4,1105.9z M-1249.1,867.6c-5.6,0-10.2,4.6-10.2,10.2v199.9c0,5.6,4.6,10.2,10.2,10.2h302.7
			c5.6,0,10.2-4.6,10.2-10.2V877.8c0-5.6-4.6-10.2-10.2-10.2H-1249.1z"/>
	</g>
	<g>
		<path d="M-1067,1147.3h-61.5c-5,0-9-4-9-9v-41.4c0-5,4-9,9-9h61.5c5,0,9,4,9,9v41.4C-1058,1143.2-1062,1147.3-1067,1147.3z
			 M-1119.5,1129.3h43.5v-23.4h-43.5V1129.3z"/>
	</g>
	<g>
		<path d="M-1030.6,1147.3h-134.3c-5,0-9-4-9-9s4-9,9-9h134.3c5,0,9,4,9,9S-1025.6,1147.3-1030.6,1147.3z"/>
	</g>
	<g>
		<path d="M-937.1,893.4h-325.8c-5,0-9-4-9-9s4-9,9-9h325.8c5,0,9,4,9,9S-932.2,893.4-937.1,893.4z"/>
	</g>
	<g>
		<path d="M-937.1,1074.2h-325.8c-5,0-9-4-9-9s4-9,9-9h325.8c5,0,9,4,9,9S-932.2,1074.2-937.1,1074.2z"/>
	</g>
	<g>
		<path d="M-1007.9,1031.9h-185.5c-15.6,0-28.2-12.7-28.2-28.2v-65.5c0-15.6,12.7-28.2,28.2-28.2h185.5c15.6,0,28.2,12.7,28.2,28.2
			v65.5C-979.7,1019.2-992.3,1031.9-1007.9,1031.9z M-1193.4,927.9c-5.6,0-10.2,4.6-10.2,10.2v65.5c0,5.6,4.6,10.2,10.2,10.2h185.5
			c5.6,0,10.2-4.6,10.2-10.2v-65.5c0-5.6-4.6-10.2-10.2-10.2H-1193.4z"/>
	</g>
</g>
<g>
	<g>
		<path d="M-2269.1,1064.8h-139.2c-5,0-9-4-9-9s4-9,9-9h139.2c5,0,9,4,9,9S-2264.1,1064.8-2269.1,1064.8z"/>
	</g>
	<g>
		<path d="M-2122.3,954.1h-95.4c-5,0-9-4-9-9s4-9,9-9h95.4c5,0,9,4,9,9S-2117.3,954.1-2122.3,954.1z"/>
	</g>
	<g>
		<path d="M-2122.3,997.8h-68c-5,0-9-4-9-9s4-9,9-9h68c5,0,9,4,9,9S-2117.3,997.8-2122.3,997.8z"/>
	</g>
	<g>
		<path d="M-2261.5,1176.6c-2.1,0-4.2-0.7-5.8-2.1l-43.4-36.9c-6.7,0.8-13.6,1.2-20.4,1.2c-36.6,0-71-11.3-97-31.9
			c-26.6-21-41.3-49.2-41.3-79.3c0-30.1,14.7-58.3,41.3-79.3c26-20.5,60.5-31.9,97-31.9c36.6,0,71,11.3,97,31.9
			c26.6,21,41.3,49.2,41.3,79.3c0,39.9-26,76.1-68.5,96l8.6,42.2c0.8,3.8-0.9,7.6-4.2,9.5
			C-2258.4,1176.2-2259.9,1176.6-2261.5,1176.6z M-2307.9,1119.1c2.1,0,4.2,0.8,5.8,2.1l26.6,22.6l-4.8-23.8
			c-0.9-4.2,1.4-8.5,5.4-10.1c39.6-16.3,64.2-47.8,64.2-82.4c0-51.4-54-93.2-120.3-93.2c-66.4,0-120.4,41.8-120.4,93.2
			c0,51.4,54,93.2,120.4,93.2c7.4,0,14.7-0.5,21.9-1.6C-2308.8,1119.2-2308.3,1119.1-2307.9,1119.1z"/>
	</g>
	<g>
		<path d="M-2168,1141.5c-0.3,0-0.6,0-0.9,0c-4.1-0.4-7.4-3.5-8-7.6l-6.5-43c-10,1.8-20.2,2.7-30.5,2.7c-3.3,0-6.7-0.1-10.1-0.3
			c-5-0.3-8.8-4.5-8.5-9.5c0.3-5,4.5-8.8,9.5-8.5c3,0.2,6,0.3,9,0.3c12.2,0,24.3-1.4,35.9-4.2c2.5-0.6,5-0.1,7.1,1.3
			c2.1,1.4,3.5,3.6,3.9,6.1l2.5,16.9l10.5-29.6c0.8-2.2,2.4-4,4.5-5.1c35-17.3,55.9-46.7,55.9-78.6c0-51.4-54-93.2-120.4-93.2
			c-40.7,0-78.4,15.8-100.8,42.3c-3.2,3.8-8.9,4.3-12.7,1.1c-3.8-3.2-4.3-8.9-1.1-12.7c25.8-30.5,68.6-48.7,114.5-48.7
			c36.6,0,71,11.3,97,31.9c26.6,21,41.3,49.2,41.3,79.3c0,37.9-23.3,72.5-62.7,93.1l-21.3,60
			C-2160.8,1139.1-2164.3,1141.5-2168,1141.5z"/>
	</g>
	<g>
		<path d="M-2359.9,1021.9h-9.9l-3.9-10.2h-18l-3.7,10.2h-9.7l17.6-45.1h9.6L-2359.9,1021.9z M-2376.7,1004.1l-6.2-16.7l-6.1,16.7
			H-2376.7z"/>
		<path d="M-2355.1,976.8h16.6c3.8,0,6.6,0.3,8.6,0.9c2.6,0.8,4.9,2.2,6.8,4.2c1.9,2,3.3,4.4,4.3,7.3c1,2.9,1.5,6.4,1.5,10.7
			c0,3.7-0.5,6.9-1.4,9.6c-1.1,3.3-2.7,5.9-4.8,8c-1.6,1.5-3.7,2.7-6.4,3.6c-2,0.6-4.7,1-8.1,1h-17.1V976.8z M-2346,984.5v29.9h6.8
			c2.5,0,4.4-0.1,5.5-0.4c1.5-0.4,2.7-1,3.7-1.9c1-0.9,1.8-2.3,2.4-4.4c0.6-2,0.9-4.8,0.9-8.3c0-3.5-0.3-6.2-0.9-8
			c-0.6-1.9-1.5-3.3-2.6-4.4c-1.1-1-2.5-1.8-4.2-2.1c-1.3-0.3-3.8-0.4-7.5-0.4H-2346z"/>
		<path d="M-2311.9,1007.3l8.9-0.9c0.5,3,1.6,5.2,3.2,6.6c1.6,1.4,3.8,2.1,6.6,2.1c2.9,0,5.1-0.6,6.6-1.9c1.5-1.2,2.2-2.7,2.2-4.4
			c0-1.1-0.3-2-0.9-2.7c-0.6-0.7-1.7-1.4-3.3-2c-1.1-0.4-3.5-1-7.3-2c-4.9-1.2-8.3-2.7-10.3-4.5c-2.8-2.5-4.2-5.5-4.2-9.1
			c0-2.3,0.7-4.4,2-6.4c1.3-2,3.2-3.5,5.6-4.6c2.5-1,5.4-1.6,8.9-1.6c5.7,0,9.9,1.2,12.8,3.7c2.9,2.5,4.4,5.8,4.5,9.9l-9.1,0.4
			c-0.4-2.3-1.2-4-2.5-5c-1.3-1-3.2-1.5-5.8-1.5c-2.6,0-4.7,0.5-6.2,1.6c-1,0.7-1.4,1.6-1.4,2.8c0,1.1,0.5,2,1.4,2.7
			c1.1,1,3.9,2,8.4,3c4.4,1,7.7,2.1,9.8,3.2c2.1,1.1,3.8,2.6,5,4.6c1.2,1.9,1.8,4.3,1.8,7.2c0,2.6-0.7,5-2.2,7.3
			c-1.4,2.3-3.5,3.9-6.1,5c-2.6,1.1-5.9,1.6-9.8,1.6c-5.7,0-10.1-1.3-13.1-4C-2309.5,1016.2-2311.3,1012.3-2311.9,1007.3z"/>
	</g>
</g>
<g>
	<g>
		<path d="M-914.6,1809.1h-366.2c-5,0-9-4-9-9v-231.8c0-5,4-9,9-9h366.2c5,0,9,4,9,9v231.8C-905.6,1805-909.7,1809.1-914.6,1809.1z
			 M-1271.8,1791.1h348.2v-213.8h-348.2V1791.1z"/>
	</g>
	<g>
		<g>
			<path d="M-1115.2,1571.4c-3.1,0-6-1.6-7.7-4.4l-67.1-112c-2.6-4.3-1.2-9.8,3.1-12.3c4.3-2.6,9.8-1.2,12.3,3.1l67.1,112
				c2.6,4.3,1.2,9.8-3.1,12.3C-1112,1571-1113.6,1571.4-1115.2,1571.4z"/>
		</g>
		<g>
			<path d="M-1073.3,1571.4c-1.4,0-2.9-0.3-4.2-1.1c-4.4-2.4-6-7.8-3.7-12.2l60.1-112c2.4-4.4,7.8-6,12.2-3.7
				c4.4,2.4,6,7.8,3.7,12.2l-60.1,112C-1067,1569.7-1070.1,1571.4-1073.3,1571.4z"/>
		</g>
	</g>
	<g>
		<path d="M-947.8,1775.1h-299.9c-5,0-9-4-9-9v-167.5c0-5,4-9,9-9h299.9c5,0,9,4,9,9v167.5C-938.8,1771-942.8,1775.1-947.8,1775.1z
			 M-1238.7,1757.1h281.9v-149.5h-281.9V1757.1z"/>
	</g>
	<g>
		<path d="M-1124.3,1708.4h-12.7l-5-13.1h-23.1l-4.8,13.1h-12.4l22.5-57.8h12.3L-1124.3,1708.4z M-1145.8,1685.5l-8-21.4l-7.8,21.4
			H-1145.8z"/>
		<path d="M-1118.2,1650.6h21.3c4.8,0,8.5,0.4,11,1.1c3.4,1,6.3,2.8,8.7,5.3c2.4,2.5,4.3,5.7,5.5,9.4c1.3,3.7,1.9,8.2,1.9,13.7
			c0,4.8-0.6,8.9-1.8,12.3c-1.4,4.2-3.5,7.6-6.2,10.2c-2,2-4.8,3.5-8.2,4.6c-2.6,0.8-6,1.2-10.3,1.2h-21.9V1650.6z M-1106.5,1660.4
			v38.3h8.7c3.3,0,5.6-0.2,7.1-0.6c1.9-0.5,3.5-1.3,4.7-2.4c1.2-1.1,2.3-3,3.1-5.6s1.2-6.1,1.2-10.6s-0.4-7.9-1.2-10.3
			c-0.8-2.4-1.9-4.3-3.3-5.6c-1.4-1.3-3.2-2.2-5.4-2.7c-1.6-0.4-4.8-0.6-9.6-0.6H-1106.5z"/>
		<path d="M-1062.8,1689.6l11.3-1.1c0.7,3.8,2.1,6.6,4.2,8.4c2.1,1.8,4.9,2.7,8.5,2.7c3.8,0,6.6-0.8,8.5-2.4
			c1.9-1.6,2.9-3.4,2.9-5.6c0-1.4-0.4-2.5-1.2-3.5c-0.8-1-2.2-1.8-4.2-2.5c-1.4-0.5-4.5-1.3-9.3-2.5c-6.3-1.5-10.6-3.5-13.2-5.7
			c-3.5-3.2-5.3-7.1-5.3-11.6c0-2.9,0.8-5.7,2.5-8.3c1.7-2.6,4.1-4.5,7.2-5.9s6.9-2,11.4-2c7.2,0,12.7,1.6,16.4,4.8
			c3.7,3.2,5.6,7.4,5.8,12.7l-11.7,0.5c-0.5-3-1.6-5.1-3.2-6.4s-4.1-2-7.4-2c-3.4,0-6,0.7-8,2.1c-1.2,0.9-1.9,2.1-1.9,3.6
			c0,1.4,0.6,2.5,1.7,3.5c1.5,1.2,5,2.5,10.7,3.9c5.7,1.3,9.9,2.7,12.6,4.2c2.7,1.4,4.8,3.4,6.4,5.9c1.5,2.5,2.3,5.5,2.3,9.2
			c0,3.3-0.9,6.4-2.8,9.3c-1.8,2.9-4.4,5-7.8,6.4c-3.4,1.4-7.6,2.1-12.6,2.1c-7.3,0-12.9-1.7-16.8-5.1S-1062.1,1696-1062.8,1689.6z"
			/>
	</g>
</g>
<g>
	<path d="M-1712.4,1778h-16.4l-6.5-17h-29.8l-6.2,17h-16l29.1-74.7h15.9L-1712.4,1778z M-1740.2,1748.4l-10.3-27.7l-10.1,27.7
		H-1740.2z"/>
	<path d="M-1704.5,1703.3h27.6c6.2,0,11,0.5,14.2,1.4c4.4,1.3,8.1,3.6,11.3,6.9c3.1,3.3,5.5,7.3,7.1,12.1s2.4,10.7,2.4,17.6
		c0,6.1-0.8,11.4-2.3,15.9c-1.9,5.4-4.5,9.8-8,13.2c-2.6,2.5-6.1,4.5-10.6,6c-3.3,1.1-7.8,1.6-13.3,1.6h-28.4V1703.3z
		 M-1689.4,1715.9v49.5h11.3c4.2,0,7.2-0.2,9.1-0.7c2.4-0.6,4.5-1.6,6.1-3.1c1.6-1.5,2.9-3.9,3.9-7.2s1.5-7.9,1.5-13.7
		s-0.5-10.2-1.5-13.3s-2.4-5.5-4.3-7.2c-1.8-1.7-4.2-2.9-7-3.5c-2.1-0.5-6.2-0.7-12.4-0.7H-1689.4z"/>
	<path d="M-1632.9,1753.7l14.7-1.4c0.9,4.9,2.7,8.5,5.4,10.8c2.7,2.3,6.3,3.5,10.9,3.5c4.9,0,8.5-1,11-3.1c2.5-2.1,3.7-4.5,3.7-7.2
		c0-1.8-0.5-3.3-1.6-4.5c-1-1.2-2.8-2.3-5.4-3.2c-1.8-0.6-5.8-1.7-12.1-3.3c-8.1-2-13.8-4.5-17-7.4c-4.6-4.1-6.9-9.1-6.9-15
		c0-3.8,1.1-7.4,3.2-10.7c2.2-3.3,5.3-5.8,9.3-7.6s9-2.6,14.7-2.6c9.4,0,16.4,2.1,21.2,6.2c4.7,4.1,7.2,9.6,7.5,16.5l-15.1,0.7
		c-0.6-3.8-2-6.6-4.2-8.3s-5.3-2.5-9.5-2.5c-4.4,0-7.8,0.9-10.3,2.7c-1.6,1.2-2.4,2.7-2.4,4.6c0,1.8,0.7,3.3,2.2,4.5
		c1.9,1.6,6.5,3.3,13.9,5c7.3,1.7,12.8,3.5,16.3,5.4c3.5,1.9,6.3,4.4,8.3,7.6s3,7.2,3,11.9c0,4.3-1.2,8.3-3.6,12
		c-2.4,3.7-5.7,6.5-10.1,8.3c-4.3,1.8-9.8,2.7-16.2,2.7c-9.4,0-16.7-2.2-21.7-6.5S-1631.9,1762-1632.9,1753.7z"/>
</g>
<g>
	<g>
		<path d="M-2818.3,1887.8h-209.6c-14.8,0-26.9-12.1-26.9-26.9v-368.5c0-14.8,12.1-26.9,26.9-26.9h209.6c14.8,0,26.9,12.1,26.9,26.9
			v72.8c0,5-4,9-9,9s-9-4-9-9v-72.8c0-4.9-4-8.9-8.9-8.9h-209.6c-4.9,0-8.9,4-8.9,8.9v368.5c0,4.9,4,8.9,8.9,8.9h209.6
			c4.9,0,8.9-4,8.9-8.9v-129.7c0-5,4-9,9-9s9,4,9,9v129.7C-2791.4,1875.7-2803.5,1887.8-2818.3,1887.8z"/>
	</g>
	<g>
		<path d="M-2840.2,1858.3h-165.9c-12.8,0-23.2-10.9-23.2-24.3v-314.8c0-13.4,10.4-24.3,23.2-24.3h165.9c12.8,0,23.2,10.9,23.2,24.3
			v46c0,5-4,9-9,9s-9-4-9-9v-46c0-3.5-2.3-6.3-5.2-6.3h-165.9c-2.8,0-5.2,2.8-5.2,6.3V1834c0,3.5,2.3,6.3,5.2,6.3h165.9
			c2.8,0,5.2-2.8,5.2-6.3v-105.4c0-5,4-9,9-9s9,4,9,9V1834C-2817,1847.4-2827.4,1858.3-2840.2,1858.3z"/>
	</g>
	<g>
		<path d="M-2912.5,1682.8h-16l-6.3-16.5h-29.1l-6,16.5h-15.6l28.3-72.7h15.5L-2912.5,1682.8z M-2939.5,1654l-10-27l-9.8,27H-2939.5
			z"/>
		<path d="M-2904.7,1610h26.8c6.1,0,10.7,0.5,13.8,1.4c4.3,1.3,7.9,3.5,11,6.7c3,3.2,5.4,7.1,6.9,11.8c1.6,4.6,2.4,10.4,2.4,17.2
			c0,6-0.7,11.1-2.2,15.5c-1.8,5.3-4.4,9.6-7.8,12.8c-2.5,2.5-6,4.4-10.3,5.8c-3.2,1-7.6,1.5-13,1.5h-27.6V1610z M-2890.1,1622.3
			v48.2h11c4.1,0,7.1-0.2,8.9-0.7c2.4-0.6,4.4-1.6,5.9-3c1.6-1.4,2.9-3.8,3.8-7c1-3.3,1.5-7.7,1.5-13.3s-0.5-9.9-1.5-12.9
			c-1-3-2.4-5.4-4.2-7c-1.8-1.7-4.1-2.8-6.8-3.4c-2-0.5-6.1-0.7-12.1-0.7H-2890.1z"/>
		<path d="M-2835.1,1659.1l14.3-1.4c0.9,4.8,2.6,8.3,5.2,10.6c2.6,2.2,6.2,3.4,10.6,3.4c4.7,0,8.3-1,10.7-3c2.4-2,3.6-4.3,3.6-7
			c0-1.7-0.5-3.2-1.5-4.4s-2.8-2.3-5.3-3.1c-1.7-0.6-5.6-1.7-11.8-3.2c-7.9-2-13.4-4.3-16.6-7.2c-4.5-4-6.7-8.9-6.7-14.6
			c0-3.7,1-7.2,3.1-10.4c2.1-3.2,5.1-5.7,9.1-7.4c4-1.7,8.7-2.5,14.3-2.5c9.1,0,16,2,20.6,6c4.6,4,7,9.3,7.3,16l-14.7,0.6
			c-0.6-3.7-2-6.4-4-8.1s-5.2-2.5-9.3-2.5c-4.3,0-7.6,0.9-10,2.6c-1.6,1.1-2.3,2.6-2.3,4.5c0,1.7,0.7,3.2,2.2,4.4
			c1.9,1.6,6.3,3.2,13.5,4.9c7.1,1.7,12.4,3.4,15.8,5.2c3.4,1.8,6.1,4.3,8,7.4c1.9,3.1,2.9,7,2.9,11.6c0,4.2-1.2,8.1-3.5,11.7
			c-2.3,3.6-5.6,6.3-9.8,8.1c-4.2,1.8-9.5,2.7-15.8,2.7c-9.2,0-16.3-2.1-21.2-6.4C-2831.1,1673.4-2834.1,1667.2-2835.1,1659.1z"/>
	</g>
	<g>
		<path d="M-2769.8,1737.6h-211.2c-14.3,0-25.9-11.6-25.9-25.9v-129.6c0-14.3,11.6-25.9,25.9-25.9h211.2c14.3,0,25.9,11.6,25.9,25.9
			v129.6C-2743.9,1725.9-2755.5,1737.6-2769.8,1737.6z M-2981.1,1574.2c-4.3,0-7.9,3.5-7.9,7.9v129.6c0,4.3,3.5,7.9,7.9,7.9h211.2
			c4.3,0,7.9-3.5,7.9-7.9v-129.6c0-4.3-3.5-7.9-7.9-7.9H-2981.1z"/>
	</g>
</g>
<g>
	<g>
		<path d="M-2290.3,1607.4h-11.6l-4.6-12h-21.1l-4.4,12h-11.3l20.6-52.9h11.3L-2290.3,1607.4z M-2309.9,1586.5l-7.3-19.6l-7.1,19.6
			H-2309.9z"/>
		<path d="M-2284.6,1554.5h19.5c4.4,0,7.8,0.3,10.1,1c3.1,0.9,5.8,2.5,8,4.9c2.2,2.3,3.9,5.2,5.1,8.6c1.2,3.4,1.7,7.5,1.7,12.5
			c0,4.4-0.5,8.1-1.6,11.3c-1.3,3.9-3.2,7-5.7,9.3c-1.9,1.8-4.4,3.2-7.5,4.2c-2.4,0.7-5.5,1.1-9.5,1.1h-20.1V1554.5z M-2274,1563.5
			v35h8c3,0,5.1-0.2,6.5-0.5c1.7-0.4,3.2-1.2,4.3-2.2c1.1-1,2.1-2.7,2.8-5.1c0.7-2.4,1.1-5.6,1.1-9.7c0-4.1-0.4-7.2-1.1-9.4
			c-0.7-2.2-1.7-3.9-3-5.1c-1.3-1.2-2.9-2.1-4.9-2.5c-1.5-0.3-4.4-0.5-8.8-0.5H-2274z"/>
		<path d="M-2233.9,1590.2l10.4-1c0.6,3.5,1.9,6.1,3.8,7.7c1.9,1.6,4.5,2.5,7.7,2.5c3.4,0,6-0.7,7.8-2.2c1.7-1.5,2.6-3.2,2.6-5.1
			c0-1.3-0.4-2.3-1.1-3.2c-0.7-0.9-2-1.6-3.8-2.3c-1.3-0.4-4.1-1.2-8.6-2.3c-5.7-1.4-9.7-3.2-12.1-5.2c-3.2-2.9-4.9-6.5-4.9-10.6
			c0-2.7,0.8-5.2,2.3-7.6c1.5-2.3,3.7-4.1,6.6-5.4c2.9-1.2,6.3-1.8,10.4-1.8c6.6,0,11.6,1.5,15,4.4c3.4,2.9,5.1,6.8,5.3,11.7
			l-10.7,0.5c-0.5-2.7-1.4-4.7-2.9-5.9c-1.5-1.2-3.8-1.8-6.8-1.8c-3.1,0-5.5,0.6-7.3,1.9c-1.1,0.8-1.7,1.9-1.7,3.3
			c0,1.3,0.5,2.3,1.6,3.2c1.3,1.1,4.6,2.3,9.8,3.5c5.2,1.2,9,2.5,11.5,3.8c2.5,1.3,4.4,3.1,5.8,5.4c1.4,2.3,2.1,5.1,2.1,8.4
			c0,3-0.8,5.9-2.5,8.5c-1.7,2.6-4.1,4.6-7.1,5.9c-3.1,1.3-6.9,1.9-11.5,1.9c-6.7,0-11.8-1.5-15.4-4.6
			C-2231.1,1600.6-2233.2,1596.1-2233.9,1590.2z"/>
	</g>
	<g>
		<path d="M-2203.8,1844.1H-2398c-5,0-9-4-9-9v-331.7c0-5,4-9,9-9h250.9c5,0,9,4,9,9v260.2c0,2-0.7,4-1.9,5.6l-56.7,71.4
			C-2198.4,1842.8-2201,1844.1-2203.8,1844.1z M-2389,1826.1h180.9l52-65.6v-248.1H-2389V1826.1z"/>
	</g>
	<g>
		<path d="M-2203.8,1844.1c-1,0-1.9-0.2-2.9-0.5c-4.7-1.6-7.2-6.7-5.7-11.4c0.1-0.4,7.9-24.8-2.5-46.8c-4-8.5-4-15.7-0.2-21.5
			c7.9-11.9,27.7-10.9,50.6-9.9c5.8,0.3,11.9,0.6,17.3,0.6c5,0,9,4,9,9s-4,9-9,9c-5.8,0-12.1-0.3-18.1-0.6
			c-8.4-0.4-17.2-0.8-24.1-0.4c-7.2,0.5-9.7,1.7-10.5,2.1c0,0.5,0.3,1.8,1.3,3.9c13.6,28.8,3.7,58.9,3.3,60.2
			C-2196.5,1841.7-2200,1844.1-2203.8,1844.1z"/>
	</g>
	<g>
		<path d="M-2202.5,1678.3h-140c-5,0-9-4-9-9s4-9,9-9h140c5,0,9,4,9,9S-2197.6,1678.3-2202.5,1678.3z"/>
	</g>
	<g>
		<path d="M-2202.5,1722.9h-140c-5,0-9-4-9-9s4-9,9-9h140c5,0,9,4,9,9S-2197.6,1722.9-2202.5,1722.9z"/>
	</g>
</g>
<g>
	<path d="M-1525.1,1835.3h-304.4c-18.7,0-33.8-15.2-33.8-33.8v-186.9c0-18.7,15.2-33.8,33.8-33.8h304.4c18.7,0,33.8,15.2,33.8,33.8
		v186.9C-1491.2,1820.1-1506.4,1835.3-1525.1,1835.3z M-1829.4,1598.7c-8.7,0-15.8,7.1-15.8,15.8v186.9c0,8.7,7.1,15.8,15.8,15.8
		h304.4c8.7,0,15.8-7.1,15.8-15.8v-186.9c0-8.7-7.1-15.8-15.8-15.8H-1829.4z"/>
</g>
<g>
	<path d="M-1677.2,1680.1c-1.2,0-2.4-0.2-3.5-0.7l-171.1-71.5c-4.6-1.9-6.7-7.2-4.8-11.8c1.9-4.6,7.2-6.7,11.8-4.8l167.5,70
		l167.6-72.3c4.6-2,9.9,0.1,11.8,4.7c2,4.6-0.1,9.9-4.7,11.8l-171.1,73.8C-1674.8,1679.9-1676,1680.1-1677.2,1680.1z"/>
</g>
</svg>
