<?xml version="1.0" encoding="utf-8"?>
<!-- Generator: Adobe Illustrator 17.0.0, SVG Export Plug-In . SVG Version: 6.00 Build 0)  -->
<!DOCTYPE svg PUBLIC "-//W3C//DTD SVG 1.1//EN" "http://www.w3.org/Graphics/SVG/1.1/DTD/svg11.dtd">
<svg version="1.1" id="Camada_1" xmlns="http://www.w3.org/2000/svg" xmlns:xlink="http://www.w3.org/1999/xlink" x="0px" y="0px"
	 width="48px" height="48px" viewBox="0 0 48 48" enable-background="new 0 0 48 48" xml:space="preserve">
<g>
	<g>
		<polygon fill="#FFFFFF" points="24,4 22,4 22,2 12,2 12,4 10,4 10,0 24,0 		"/>
	</g>
	<g>
		<path fill="#FFFFFF" d="M27,48H0V2h12v4h10V2h14v15c0,0.552-0.447,1-1,1s-1-0.448-1-1V4H24v4H10V4H2v42h25c0.553,0,1,0.447,1,1
			S27.553,48,27,48z"/>
	</g>
</g>
<g>
	<polygon fill="#FFFFFF" points="14.414,25 8,25 8,23 13.586,23 17.586,19 22.586,19 26.586,15 30,15 30,17 27.414,17 23.414,21 
		18.414,21 	"/>
</g>
<g>
	<polygon fill="#FFFFFF" points="19.303,29 8,29 8,27 18.697,27 21.697,25 30,25 30,27 22.303,27 	"/>
</g>
<g>
	<polygon fill="#FFFFFF" points="24.042,44 4,44 4,6 8,6 8,8 6,8 6,42 24.042,42 	"/>
</g>
<g>
	<path fill="#FFFFFF" d="M31,21c-0.553,0-1-0.448-1-1V8h-7c-0.552,0-1-0.448-1-1s0.448-1,1-1h9v14C32,20.552,31.553,21,31,21z"/>
</g>
<g>
	<rect x="8" y="38" fill="#FFFFFF" width="6" height="2"/>
</g>
<g>
	<rect x="24" y="10" fill="#FFFFFF" width="4" height="2"/>
</g>
<g>
	<rect x="8" y="34" fill="#FFFFFF" width="6" height="2"/>
</g>
<g>
	<g>
		<path fill="#FFFFFF" d="M37,32c-2.757,0-5-2.243-5-5v-2c0-2.757,2.243-5,5-5s5,2.243,5,5v2C42,29.757,39.757,32,37,32z M37,22
			c-1.654,0-3,1.346-3,3v2c0,1.654,1.346,3,3,3s3-1.346,3-3v-2C40,23.346,38.654,22,37,22z"/>
	</g>
	<g>
		<path fill="#FFFFFF" d="M47,48c-0.553,0-1-0.447-1-1v-8.362c0-1.202-0.714-2.284-1.817-2.758L38,33.708V31c0-0.553,0.447-1,1-1
			s1,0.447,1,1v1.292l4.908,1.726C46.811,34.831,48,36.635,48,38.638V47C48,47.553,47.553,48,47,48z"/>
	</g>
	<g>
		<path fill="#FFFFFF" d="M27,48c-0.553,0-1-0.447-1-1v-8.362c0-2.003,1.189-3.807,3.03-4.596l4.97-1.75V31c0-0.553,0.447-1,1-1
			s1,0.447,1,1v2.708l-6.244,2.196C28.714,36.354,28,37.436,28,38.638V47C28,47.553,27.553,48,27,48z"/>
	</g>
	<g>
		<path fill="#FFFFFF" d="M43,48c-0.553,0-1-0.447-1-1v-6c0-0.553,0.447-1,1-1s1,0.447,1,1v6C44,47.553,43.553,48,43,48z"/>
	</g>
	<g>
		<path fill="#FFFFFF" d="M31,48c-0.553,0-1-0.447-1-1v-6c0-0.553,0.447-1,1-1s1,0.447,1,1v6C32,47.553,31.553,48,31,48z"/>
	</g>
</g>
</svg>
