<?xml version="1.0" encoding="utf-8"?>
<!-- Generator: Adobe Illustrator 17.0.0, SVG Export Plug-In . SVG Version: 6.00 Build 0)  -->
<!DOCTYPE svg PUBLIC "-//W3C//DTD SVG 1.1//EN" "http://www.w3.org/Graphics/SVG/1.1/DTD/svg11.dtd">
<svg version="1.1" id="Camada_1" xmlns="http://www.w3.org/2000/svg" xmlns:xlink="http://www.w3.org/1999/xlink" x="0px" y="0px"
	 width="486px" height="479.561px" viewBox="0 0 486 479.561" enable-background="new 0 0 486 479.561" xml:space="preserve">
<g>
	<defs>
		<rect id="SVGID_1_" width="486" height="479.561"/>
	</defs>
	<clipPath id="SVGID_2_">
		<use xlink:href="#SVGID_1_"  overflow="visible"/>
	</clipPath>
	<path clip-path="url(#SVGID_2_)" fill="#FFFFFF" d="M461.3,153.241c-0.781-0.653-1.679-1.192-2.691-1.561L150.238,39.441
		c0.622-6.332-0.455-12.739-3.214-18.656c-4.061-8.707-11.269-15.312-20.297-18.597c-9.03-3.285-18.795-2.859-27.501,1.2
		C90.52,7.449,83.914,14.657,80.629,23.684c-6.783,18.636,2.86,39.315,21.496,46.099c4.047,1.473,8.189,2.171,12.266,2.171
		c11.752,0,22.938-5.819,29.667-15.607l250.607,91.214H47.11C21.133,147.561,0,168.694,0,194.67v237.782
		c0,25.976,21.133,47.109,47.11,47.109h391.781c25.976,0,47.109-21.133,47.109-47.109V194.67
		C486,176.801,475.999,161.224,461.3,153.241 M131.311,42.13c-3.39,9.308-13.717,14.126-23.03,10.739
		C98.972,49.48,94.155,39.15,97.543,29.84c1.642-4.509,4.941-8.11,9.29-10.138c2.416-1.126,4.994-1.693,7.582-1.693
		c2.072,0,4.151,0.364,6.155,1.093c4.511,1.642,8.112,4.941,10.14,9.29C132.738,32.742,132.952,37.62,131.311,42.13 M468,432.452
		c0,16.05-13.058,29.109-29.109,29.109H47.11c-16.051,0-29.11-13.059-29.11-29.109V264.561h450V432.452z M468,246.561h-95v-29
		c0-4.971-4.029-9-9-9s-9,4.029-9,9v29H172v-29c0-4.971-4.029-9-9-9c-4.971,0-9,4.029-9,9v29H71v-29c0-4.971-4.029-9-9-9
		c-4.971,0-9,4.029-9,9v29H18V194.67c0-16.05,13.059-29.109,29.11-29.109h391.781c16.051,0,29.109,13.059,29.109,29.109V246.561z
		 M99.858,427.464c6.55,0,11.859-5.308,11.859-11.857c0-6.55-5.309-11.859-11.859-11.859c-6.549,0-11.857,5.309-11.857,11.859
		C88.001,422.156,93.309,427.464,99.858,427.464 M99.858,392.063c6.55,0,11.859-5.307,11.859-11.857
		c0-6.55-5.309-11.858-11.859-11.858c-6.549,0-11.857,5.308-11.857,11.858C88.001,386.756,93.309,392.063,99.858,392.063
		 M99.858,356.663c6.55,0,11.859-5.309,11.859-11.858c0-6.55-5.309-11.858-11.859-11.858c-6.549,0-11.857,5.308-11.857,11.858
		C88.001,351.354,93.309,356.663,99.858,356.663 M62.434,392.063c6.549,0,11.86-5.307,11.86-11.857
		c0-6.55-5.311-11.858-11.86-11.858c-6.547,0-11.858,5.308-11.858,11.858C50.576,386.756,55.887,392.063,62.434,392.063
		 M62.434,427.464c6.549,0,11.86-5.308,11.86-11.857c0-6.55-5.311-11.859-11.86-11.859c-6.547,0-11.858,5.309-11.858,11.859
		C50.576,422.156,55.887,427.464,62.434,427.464 M99.858,321.261c6.55,0,11.859-5.308,11.859-11.856
		c0-6.551-5.309-11.858-11.859-11.858c-6.549,0-11.857,5.307-11.857,11.858C88.001,315.953,93.309,321.261,99.858,321.261
		 M62.434,356.663c6.549,0,11.86-5.309,11.86-11.858c0-6.55-5.311-11.858-11.86-11.858c-6.547,0-11.858,5.308-11.858,11.858
		C50.576,351.354,55.887,356.663,62.434,356.663 M62.434,321.261c6.549,0,11.86-5.308,11.86-11.856
		c0-6.551-5.311-11.858-11.86-11.858c-6.547,0-11.858,5.307-11.858,11.858C50.576,315.953,55.887,321.261,62.434,321.261
		 M137.283,356.663c6.549,0,11.857-5.309,11.857-11.858c0-6.55-5.308-11.858-11.857-11.858c-6.551,0-11.859,5.308-11.859,11.858
		C125.424,351.354,130.732,356.663,137.283,356.663 M137.283,427.464c6.549,0,11.857-5.308,11.857-11.857
		c0-6.55-5.308-11.859-11.857-11.859c-6.551,0-11.859,5.309-11.859,11.859C125.424,422.156,130.732,427.464,137.283,427.464
		 M174.706,392.063c6.549,0,11.858-5.307,11.858-11.857c0-6.55-5.309-11.858-11.858-11.858c-6.549,0-11.859,5.308-11.859,11.858
		C162.847,386.756,168.157,392.063,174.706,392.063 M174.706,321.261c6.549,0,11.858-5.308,11.858-11.856
		c0-6.551-5.309-11.858-11.858-11.858c-6.549,0-11.859,5.307-11.859,11.858C162.847,315.953,168.157,321.261,174.706,321.261
		 M174.706,356.663c6.549,0,11.858-5.309,11.858-11.858c0-6.55-5.309-11.858-11.858-11.858c-6.549,0-11.859,5.308-11.859,11.858
		C162.847,351.354,168.157,356.663,174.706,356.663 M174.706,427.464c6.549,0,11.858-5.308,11.858-11.857
		c0-6.55-5.309-11.859-11.858-11.859c-6.549,0-11.859,5.309-11.859,11.859C162.847,422.156,168.157,427.464,174.706,427.464
		 M137.283,392.063c6.549,0,11.857-5.307,11.857-11.857c0-6.55-5.308-11.858-11.857-11.858c-6.551,0-11.859,5.308-11.859,11.858
		C125.424,386.756,130.732,392.063,137.283,392.063 M137.283,321.261c6.549,0,11.857-5.308,11.857-11.856
		c0-6.551-5.308-11.858-11.857-11.858c-6.551,0-11.859,5.307-11.859,11.858C125.424,315.953,130.732,321.261,137.283,321.261
		 M271.441,415.942c29.464,0,53.436-23.972,53.436-53.437c0-29.464-23.972-53.436-53.436-53.436
		c-29.465,0-53.437,23.972-53.437,53.436C218.004,391.97,241.976,415.942,271.441,415.942 M262,328.356v28.205c0,4.971,4.029,9,9,9
		s9-4.029,9-9V328.12c15.417,3.839,26.877,17.796,26.877,34.385c0,19.54-15.896,35.437-35.436,35.437s-35.437-15.897-35.437-35.437
		C236.004,346.235,247.03,332.499,262,328.356 M364.092,403.44c9.994,8.385,22.181,12.477,34.306,12.477
		c15.26,0,30.423-6.486,40.977-19.063c18.939-22.571,15.984-56.343-6.586-75.283c-10.934-9.176-24.796-13.541-39.006-12.3
		c-14.217,1.244-27.101,7.951-36.277,18.886C338.568,350.729,341.522,384.5,364.092,403.44 M371.295,339.727
		c6.085-7.252,14.629-11.699,24.058-12.524c1.053-0.092,2.103-0.138,3.148-0.138c5.111,0,10.092,1.098,14.67,3.198l-18.142,21.62
		c-3.195,3.808-2.698,9.485,1.11,12.68c1.686,1.415,3.739,2.105,5.78,2.105c2.568,0,5.119-1.093,6.899-3.214l18.282-21.787
		c9.341,12.851,9.148,30.91-1.514,43.617c-12.559,14.967-34.957,16.924-49.924,4.367
		C360.695,377.091,358.736,354.696,371.295,339.727"/>
</g>
</svg>
