<?xml version="1.0" encoding="utf-8"?>
<!-- Generator: Adobe Illustrator 17.0.0, SVG Export Plug-In . SVG Version: 6.00 Build 0)  -->
<!DOCTYPE svg PUBLIC "-//W3C//DTD SVG 1.1//EN" "http://www.w3.org/Graphics/SVG/1.1/DTD/svg11.dtd">
<svg version="1.1" id="Camada_1" xmlns="http://www.w3.org/2000/svg" xmlns:xlink="http://www.w3.org/1999/xlink" x="0px" y="0px"
	 width="504px" height="426.004px" viewBox="0 0 504 426.004" enable-background="new 0 0 504 426.004" xml:space="preserve">
<g>
	<path fill="#FFFFFF" d="M460.5,0h-417C19.514,0,0,19.514,0,43.5v259.83c0,23.986,19.514,43.5,43.5,43.5h199.5v61.174H142.762
		c-4.97,0-9,4.03-9,9c0,4.971,4.03,9,9,9h218.477c4.971,0,9-4.029,9-9c0-4.97-4.029-9-9-9H260.999V346.83H460.5
		c23.985,0,43.499-19.514,43.499-43.5V43.5C503.999,19.514,484.485,0,460.5,0 M486,303.33c0,14.061-11.44,25.5-25.5,25.5h-417
		c-14.061,0-25.5-11.439-25.5-25.5V43.5C18,29.44,29.44,18,43.5,18h417c14.06,0,25.5,11.44,25.5,25.5V303.33z M448.48,292.502h-36.8
		c-4.971,0-9,4.029-9,9c0,4.971,4.029,9,9,9h36.8c4.97,0,9-4.029,9-9C457.48,296.531,453.451,292.502,448.48,292.502
		 M232.163,106.045H124.105c-4.971,0-9,4.03-9,9c0,4.971,4.029,9,9,9h45.029v114.914c0,4.971,4.029,9,9,9c4.97,0,9-4.029,9-9
		V124.045h45.029c4.971,0,9-4.029,9-9C241.163,110.075,237.135,106.045,232.163,106.045 M374.188,106.672
		c-4.625-1.822-9.851,0.45-11.672,5.075l-41.693,105.835l-41.693-105.835c-1.821-4.625-7.045-6.897-11.672-5.075
		c-4.624,1.822-6.896,7.048-5.075,11.672l48.815,123.914c1.395,3.542,4.786,5.703,8.376,5.703c0.414,0,0.832-0.038,1.249-0.097
		c0.417,0.059,0.835,0.097,1.249,0.097c3.589,0,6.981-2.162,8.376-5.703l48.815-123.914
		C381.084,113.72,378.812,108.494,374.188,106.672"/>
</g>
</svg>
